G04 EAGLE Gerber X2 export*
%TF.Part,Single*%
%TF.FileFunction,Copper,L2,Bot,Mixed*%
%TF.FilePolarity,Positive*%
%TF.GenerationSoftware,Autodesk,EAGLE,8.6.3*%
%TF.CreationDate,2018-11-13T19:06:48Z*%
G75*
%MOMM*%
%FSLAX34Y34*%
%LPD*%
%AMOC8*
5,1,8,0,0,1.08239X$1,22.5*%
G01*
%ADD10C,1.508000*%
%ADD11C,1.879600*%
%ADD12R,2.032000X2.032000*%
%ADD13C,2.032000*%
%ADD14R,3.000000X3.000000*%
%ADD15R,1.100000X1.000000*%
%ADD16C,2.184400*%
%ADD17R,1.000000X1.100000*%
%ADD18C,0.812800*%
%ADD19C,1.270000*%
%ADD20C,0.609600*%

G36*
X713209Y10172D02*
X713209Y10172D01*
X713260Y10174D01*
X713292Y10192D01*
X713328Y10200D01*
X713367Y10233D01*
X713412Y10257D01*
X713433Y10287D01*
X713461Y10310D01*
X713482Y10357D01*
X713512Y10399D01*
X713520Y10441D01*
X713532Y10469D01*
X713531Y10499D01*
X713539Y10541D01*
X713539Y875159D01*
X713528Y875209D01*
X713526Y875260D01*
X713508Y875292D01*
X713500Y875328D01*
X713467Y875367D01*
X713443Y875412D01*
X713413Y875433D01*
X713390Y875461D01*
X713343Y875482D01*
X713301Y875512D01*
X713259Y875520D01*
X713231Y875532D01*
X713201Y875531D01*
X713159Y875539D01*
X693947Y875539D01*
X693910Y875531D01*
X693872Y875532D01*
X693827Y875511D01*
X693778Y875500D01*
X693749Y875476D01*
X693714Y875460D01*
X693683Y875421D01*
X693644Y875390D01*
X693629Y875355D01*
X693605Y875326D01*
X693594Y875277D01*
X693574Y875231D01*
X693575Y875194D01*
X693567Y875157D01*
X693578Y875108D01*
X693580Y875058D01*
X693598Y875025D01*
X693607Y874988D01*
X693639Y874950D01*
X693663Y874906D01*
X693694Y874884D01*
X693718Y874855D01*
X693774Y874828D01*
X693805Y874806D01*
X693827Y874802D01*
X693848Y874792D01*
X695512Y874346D01*
X701249Y871034D01*
X705934Y866349D01*
X709246Y860612D01*
X710960Y854215D01*
X710961Y854213D01*
X710961Y847587D01*
X709246Y841188D01*
X705934Y835451D01*
X701249Y830766D01*
X695512Y827454D01*
X689113Y825739D01*
X682487Y825739D01*
X676088Y827454D01*
X670351Y830766D01*
X665666Y835451D01*
X662354Y841188D01*
X661764Y843389D01*
X660639Y847587D01*
X660639Y854213D01*
X662354Y860612D01*
X665666Y866349D01*
X670351Y871034D01*
X676088Y874346D01*
X677752Y874792D01*
X677785Y874810D01*
X677822Y874818D01*
X677860Y874850D01*
X677904Y874874D01*
X677926Y874904D01*
X677956Y874928D01*
X677976Y874974D01*
X678005Y875015D01*
X678011Y875052D01*
X678026Y875087D01*
X678025Y875136D01*
X678032Y875186D01*
X678021Y875222D01*
X678020Y875260D01*
X677996Y875304D01*
X677981Y875351D01*
X677955Y875379D01*
X677937Y875412D01*
X677896Y875441D01*
X677862Y875477D01*
X677826Y875490D01*
X677795Y875512D01*
X677735Y875523D01*
X677699Y875536D01*
X677676Y875535D01*
X677653Y875539D01*
X46247Y875539D01*
X46210Y875531D01*
X46172Y875532D01*
X46127Y875511D01*
X46078Y875500D01*
X46049Y875476D01*
X46014Y875460D01*
X45983Y875421D01*
X45944Y875390D01*
X45929Y875355D01*
X45905Y875326D01*
X45894Y875277D01*
X45874Y875231D01*
X45875Y875194D01*
X45867Y875157D01*
X45878Y875108D01*
X45880Y875058D01*
X45898Y875025D01*
X45907Y874988D01*
X45939Y874950D01*
X45963Y874906D01*
X45994Y874884D01*
X46018Y874855D01*
X46074Y874828D01*
X46105Y874806D01*
X46127Y874802D01*
X46148Y874792D01*
X47812Y874346D01*
X53549Y871034D01*
X58234Y866349D01*
X61546Y860612D01*
X63260Y854215D01*
X63261Y854213D01*
X63261Y847587D01*
X61546Y841188D01*
X58234Y835451D01*
X53549Y830766D01*
X47812Y827454D01*
X41413Y825739D01*
X34787Y825739D01*
X28388Y827454D01*
X22651Y830766D01*
X17966Y835451D01*
X14654Y841188D01*
X14064Y843389D01*
X12939Y847587D01*
X12939Y854213D01*
X14654Y860612D01*
X17966Y866349D01*
X22651Y871034D01*
X28388Y874346D01*
X30052Y874792D01*
X30085Y874810D01*
X30122Y874818D01*
X30160Y874850D01*
X30204Y874874D01*
X30226Y874904D01*
X30256Y874928D01*
X30276Y874974D01*
X30305Y875015D01*
X30311Y875052D01*
X30326Y875087D01*
X30325Y875136D01*
X30332Y875186D01*
X30321Y875222D01*
X30320Y875260D01*
X30296Y875304D01*
X30281Y875351D01*
X30255Y875379D01*
X30237Y875412D01*
X30196Y875441D01*
X30162Y875477D01*
X30126Y875490D01*
X30095Y875512D01*
X30035Y875523D01*
X29999Y875536D01*
X29976Y875535D01*
X29953Y875539D01*
X10541Y875539D01*
X10491Y875528D01*
X10440Y875526D01*
X10408Y875508D01*
X10372Y875500D01*
X10333Y875467D01*
X10288Y875443D01*
X10267Y875413D01*
X10239Y875390D01*
X10218Y875343D01*
X10188Y875301D01*
X10180Y875259D01*
X10168Y875231D01*
X10169Y875201D01*
X10161Y875159D01*
X10161Y10541D01*
X10172Y10491D01*
X10174Y10440D01*
X10192Y10408D01*
X10200Y10372D01*
X10233Y10333D01*
X10257Y10288D01*
X10287Y10267D01*
X10310Y10239D01*
X10357Y10218D01*
X10399Y10188D01*
X10441Y10180D01*
X10469Y10168D01*
X10499Y10169D01*
X10541Y10161D01*
X713159Y10161D01*
X713209Y10172D01*
G37*
%LPC*%
G36*
X219333Y31321D02*
X219333Y31321D01*
X216345Y32559D01*
X215742Y33162D01*
X215678Y33202D01*
X215616Y33246D01*
X215604Y33248D01*
X215595Y33253D01*
X215558Y33257D01*
X215473Y33273D01*
X156527Y33273D01*
X152419Y34975D01*
X135182Y52212D01*
X135117Y52252D01*
X135055Y52296D01*
X135043Y52298D01*
X135035Y52303D01*
X134998Y52307D01*
X134913Y52323D01*
X129864Y52323D01*
X123422Y54992D01*
X120919Y57495D01*
X120876Y57522D01*
X120838Y57556D01*
X120803Y57567D01*
X120772Y57586D01*
X120721Y57591D01*
X120672Y57605D01*
X120636Y57599D01*
X120599Y57603D01*
X120552Y57584D01*
X120501Y57576D01*
X120466Y57552D01*
X120437Y57541D01*
X120416Y57518D01*
X120381Y57495D01*
X117878Y54992D01*
X111436Y52323D01*
X104464Y52323D01*
X98022Y54992D01*
X93092Y59922D01*
X92259Y61932D01*
X92237Y61963D01*
X92223Y61999D01*
X92187Y62032D01*
X92158Y62072D01*
X92124Y62090D01*
X92096Y62117D01*
X92049Y62131D01*
X92005Y62154D01*
X91967Y62155D01*
X91930Y62166D01*
X91881Y62157D01*
X91832Y62159D01*
X91797Y62143D01*
X91759Y62136D01*
X91709Y62102D01*
X91674Y62086D01*
X91661Y62070D01*
X91639Y62055D01*
X90328Y60744D01*
X88807Y59639D01*
X87133Y58786D01*
X85346Y58205D01*
X83490Y57911D01*
X83311Y57911D01*
X83311Y69469D01*
X83300Y69519D01*
X83298Y69570D01*
X83280Y69602D01*
X83272Y69638D01*
X83239Y69677D01*
X83215Y69722D01*
X83185Y69743D01*
X83162Y69771D01*
X83115Y69792D01*
X83073Y69821D01*
X83031Y69830D01*
X83003Y69842D01*
X82973Y69841D01*
X82931Y69849D01*
X82549Y69849D01*
X82549Y69851D01*
X82931Y69851D01*
X82981Y69863D01*
X83032Y69864D01*
X83064Y69882D01*
X83100Y69890D01*
X83139Y69923D01*
X83184Y69947D01*
X83205Y69977D01*
X83233Y70001D01*
X83254Y70047D01*
X83284Y70089D01*
X83292Y70131D01*
X83304Y70159D01*
X83304Y70167D01*
X83304Y70168D01*
X83303Y70191D01*
X83311Y70231D01*
X83311Y81789D01*
X83490Y81789D01*
X85346Y81495D01*
X87133Y80914D01*
X88807Y80061D01*
X90328Y78956D01*
X91639Y77645D01*
X91672Y77625D01*
X91698Y77597D01*
X91744Y77580D01*
X91786Y77554D01*
X91824Y77550D01*
X91860Y77537D01*
X91909Y77542D01*
X91959Y77537D01*
X91995Y77551D01*
X92033Y77555D01*
X92074Y77581D01*
X92121Y77599D01*
X92147Y77627D01*
X92179Y77647D01*
X92213Y77698D01*
X92238Y77726D01*
X92244Y77746D01*
X92259Y77768D01*
X93092Y79778D01*
X93360Y80046D01*
X93400Y80111D01*
X93444Y80173D01*
X93446Y80185D01*
X93451Y80194D01*
X93455Y80231D01*
X93471Y80315D01*
X93471Y110185D01*
X93459Y110238D01*
X93458Y110267D01*
X93450Y110281D01*
X93441Y110334D01*
X93434Y110344D01*
X93432Y110353D01*
X93408Y110382D01*
X93360Y110454D01*
X93092Y110722D01*
X92259Y112732D01*
X92237Y112763D01*
X92223Y112799D01*
X92187Y112832D01*
X92158Y112872D01*
X92124Y112890D01*
X92096Y112917D01*
X92049Y112931D01*
X92005Y112954D01*
X91967Y112955D01*
X91930Y112966D01*
X91881Y112957D01*
X91832Y112959D01*
X91797Y112943D01*
X91759Y112936D01*
X91709Y112902D01*
X91674Y112886D01*
X91661Y112870D01*
X91639Y112855D01*
X90328Y111544D01*
X88807Y110439D01*
X87133Y109586D01*
X85346Y109005D01*
X83490Y108711D01*
X83311Y108711D01*
X83311Y120269D01*
X83300Y120319D01*
X83298Y120370D01*
X83280Y120402D01*
X83272Y120438D01*
X83239Y120477D01*
X83215Y120522D01*
X83185Y120543D01*
X83162Y120571D01*
X83115Y120592D01*
X83073Y120621D01*
X83031Y120630D01*
X83003Y120642D01*
X82973Y120641D01*
X82931Y120649D01*
X82549Y120649D01*
X82549Y120651D01*
X82931Y120651D01*
X82981Y120663D01*
X83032Y120664D01*
X83064Y120682D01*
X83100Y120690D01*
X83139Y120723D01*
X83184Y120747D01*
X83205Y120777D01*
X83233Y120801D01*
X83254Y120847D01*
X83284Y120889D01*
X83292Y120931D01*
X83304Y120959D01*
X83303Y120989D01*
X83311Y121031D01*
X83311Y132589D01*
X83490Y132589D01*
X85346Y132295D01*
X87133Y131714D01*
X88807Y130861D01*
X90328Y129756D01*
X91639Y128445D01*
X91672Y128425D01*
X91698Y128397D01*
X91744Y128380D01*
X91786Y128354D01*
X91824Y128350D01*
X91860Y128337D01*
X91909Y128342D01*
X91959Y128337D01*
X91995Y128351D01*
X92033Y128355D01*
X92074Y128381D01*
X92121Y128399D01*
X92147Y128427D01*
X92179Y128447D01*
X92213Y128498D01*
X92238Y128526D01*
X92244Y128546D01*
X92259Y128568D01*
X93092Y130578D01*
X93360Y130846D01*
X93400Y130911D01*
X93444Y130973D01*
X93446Y130985D01*
X93451Y130994D01*
X93455Y131031D01*
X93471Y131115D01*
X93471Y160985D01*
X93454Y161059D01*
X93441Y161133D01*
X93434Y161144D01*
X93432Y161153D01*
X93408Y161182D01*
X93360Y161254D01*
X93092Y161522D01*
X92259Y163532D01*
X92237Y163563D01*
X92223Y163599D01*
X92187Y163632D01*
X92158Y163672D01*
X92124Y163690D01*
X92096Y163717D01*
X92049Y163731D01*
X92005Y163754D01*
X91967Y163755D01*
X91930Y163766D01*
X91881Y163757D01*
X91832Y163759D01*
X91797Y163743D01*
X91759Y163736D01*
X91709Y163702D01*
X91674Y163686D01*
X91661Y163670D01*
X91639Y163655D01*
X90328Y162344D01*
X88807Y161239D01*
X87133Y160386D01*
X85346Y159805D01*
X83490Y159511D01*
X83311Y159511D01*
X83311Y171069D01*
X83300Y171119D01*
X83298Y171170D01*
X83280Y171202D01*
X83272Y171238D01*
X83239Y171277D01*
X83215Y171322D01*
X83185Y171343D01*
X83162Y171371D01*
X83115Y171392D01*
X83073Y171421D01*
X83031Y171430D01*
X83003Y171442D01*
X82973Y171441D01*
X82931Y171449D01*
X82549Y171449D01*
X82549Y171451D01*
X82931Y171451D01*
X82981Y171463D01*
X83032Y171464D01*
X83064Y171482D01*
X83100Y171490D01*
X83139Y171523D01*
X83184Y171547D01*
X83205Y171577D01*
X83233Y171601D01*
X83254Y171647D01*
X83284Y171689D01*
X83292Y171731D01*
X83304Y171759D01*
X83303Y171789D01*
X83311Y171831D01*
X83311Y183389D01*
X83490Y183389D01*
X85346Y183095D01*
X87133Y182514D01*
X88807Y181661D01*
X90328Y180556D01*
X91639Y179245D01*
X91672Y179225D01*
X91698Y179197D01*
X91744Y179180D01*
X91786Y179154D01*
X91824Y179150D01*
X91860Y179137D01*
X91909Y179142D01*
X91959Y179137D01*
X91995Y179151D01*
X92033Y179155D01*
X92074Y179181D01*
X92121Y179199D01*
X92147Y179227D01*
X92179Y179247D01*
X92213Y179298D01*
X92238Y179326D01*
X92244Y179346D01*
X92259Y179368D01*
X93092Y181378D01*
X93360Y181646D01*
X93400Y181711D01*
X93444Y181773D01*
X93446Y181785D01*
X93451Y181794D01*
X93455Y181831D01*
X93471Y181915D01*
X93471Y211785D01*
X93454Y211859D01*
X93441Y211934D01*
X93434Y211944D01*
X93432Y211953D01*
X93408Y211982D01*
X93360Y212054D01*
X93092Y212322D01*
X92259Y214332D01*
X92237Y214363D01*
X92223Y214399D01*
X92187Y214432D01*
X92158Y214472D01*
X92124Y214490D01*
X92096Y214517D01*
X92049Y214531D01*
X92005Y214554D01*
X91967Y214555D01*
X91930Y214566D01*
X91881Y214557D01*
X91832Y214559D01*
X91797Y214543D01*
X91759Y214536D01*
X91709Y214502D01*
X91674Y214486D01*
X91661Y214470D01*
X91639Y214455D01*
X90328Y213144D01*
X88807Y212039D01*
X87133Y211186D01*
X85346Y210605D01*
X83490Y210311D01*
X83311Y210311D01*
X83311Y221869D01*
X83300Y221919D01*
X83298Y221970D01*
X83280Y222002D01*
X83272Y222038D01*
X83239Y222077D01*
X83215Y222122D01*
X83185Y222143D01*
X83162Y222171D01*
X83115Y222192D01*
X83073Y222221D01*
X83031Y222230D01*
X83003Y222242D01*
X82973Y222241D01*
X82931Y222249D01*
X82549Y222249D01*
X82549Y222251D01*
X82931Y222251D01*
X82981Y222263D01*
X83032Y222264D01*
X83064Y222282D01*
X83100Y222290D01*
X83139Y222323D01*
X83184Y222347D01*
X83205Y222377D01*
X83233Y222401D01*
X83254Y222447D01*
X83284Y222489D01*
X83292Y222531D01*
X83304Y222559D01*
X83303Y222589D01*
X83311Y222631D01*
X83311Y234189D01*
X83490Y234189D01*
X85346Y233895D01*
X87133Y233314D01*
X88807Y232461D01*
X90328Y231356D01*
X91639Y230045D01*
X91672Y230025D01*
X91698Y229997D01*
X91744Y229980D01*
X91745Y229979D01*
X91754Y229973D01*
X91756Y229973D01*
X91786Y229954D01*
X91824Y229950D01*
X91860Y229937D01*
X91909Y229942D01*
X91959Y229937D01*
X91995Y229951D01*
X92033Y229955D01*
X92074Y229981D01*
X92121Y229999D01*
X92147Y230027D01*
X92179Y230047D01*
X92205Y230087D01*
X92215Y230095D01*
X92220Y230106D01*
X92238Y230126D01*
X92244Y230146D01*
X92259Y230168D01*
X93092Y232178D01*
X93360Y232446D01*
X93400Y232511D01*
X93444Y232573D01*
X93446Y232585D01*
X93451Y232594D01*
X93455Y232631D01*
X93471Y232715D01*
X93471Y262585D01*
X93454Y262659D01*
X93441Y262733D01*
X93434Y262744D01*
X93432Y262753D01*
X93408Y262782D01*
X93360Y262854D01*
X93092Y263122D01*
X92259Y265132D01*
X92237Y265163D01*
X92223Y265199D01*
X92187Y265232D01*
X92158Y265272D01*
X92124Y265290D01*
X92096Y265317D01*
X92049Y265331D01*
X92005Y265354D01*
X91967Y265355D01*
X91930Y265366D01*
X91881Y265357D01*
X91832Y265359D01*
X91797Y265343D01*
X91759Y265336D01*
X91709Y265302D01*
X91674Y265286D01*
X91661Y265270D01*
X91639Y265255D01*
X90328Y263944D01*
X88807Y262839D01*
X87133Y261986D01*
X85346Y261405D01*
X83490Y261111D01*
X83311Y261111D01*
X83311Y272669D01*
X83300Y272719D01*
X83298Y272770D01*
X83280Y272802D01*
X83272Y272838D01*
X83239Y272877D01*
X83215Y272922D01*
X83185Y272943D01*
X83162Y272971D01*
X83115Y272992D01*
X83073Y273021D01*
X83031Y273030D01*
X83003Y273042D01*
X82973Y273041D01*
X82931Y273049D01*
X82549Y273049D01*
X82549Y273051D01*
X82931Y273051D01*
X82981Y273063D01*
X83032Y273064D01*
X83064Y273082D01*
X83100Y273090D01*
X83139Y273123D01*
X83184Y273147D01*
X83205Y273177D01*
X83233Y273201D01*
X83254Y273247D01*
X83284Y273289D01*
X83292Y273331D01*
X83304Y273359D01*
X83303Y273389D01*
X83311Y273431D01*
X83311Y284989D01*
X83490Y284989D01*
X85346Y284695D01*
X87133Y284114D01*
X88807Y283261D01*
X90328Y282156D01*
X91639Y280845D01*
X91672Y280825D01*
X91698Y280797D01*
X91744Y280780D01*
X91786Y280754D01*
X91824Y280750D01*
X91860Y280737D01*
X91909Y280742D01*
X91959Y280737D01*
X91995Y280751D01*
X92033Y280755D01*
X92074Y280781D01*
X92121Y280799D01*
X92147Y280827D01*
X92179Y280847D01*
X92213Y280898D01*
X92238Y280926D01*
X92244Y280946D01*
X92259Y280968D01*
X93092Y282978D01*
X93360Y283246D01*
X93400Y283311D01*
X93444Y283373D01*
X93446Y283385D01*
X93451Y283394D01*
X93455Y283431D01*
X93471Y283515D01*
X93471Y313385D01*
X93454Y313459D01*
X93441Y313534D01*
X93434Y313544D01*
X93432Y313553D01*
X93408Y313582D01*
X93360Y313654D01*
X93092Y313922D01*
X92259Y315932D01*
X92237Y315963D01*
X92223Y315999D01*
X92187Y316032D01*
X92158Y316072D01*
X92124Y316090D01*
X92096Y316117D01*
X92049Y316131D01*
X92005Y316154D01*
X91967Y316155D01*
X91930Y316166D01*
X91881Y316157D01*
X91832Y316159D01*
X91797Y316143D01*
X91759Y316136D01*
X91709Y316102D01*
X91674Y316086D01*
X91661Y316070D01*
X91639Y316055D01*
X90328Y314744D01*
X88807Y313639D01*
X87133Y312786D01*
X85346Y312205D01*
X83490Y311911D01*
X83311Y311911D01*
X83311Y323469D01*
X83300Y323519D01*
X83298Y323570D01*
X83280Y323602D01*
X83272Y323638D01*
X83239Y323677D01*
X83215Y323722D01*
X83185Y323743D01*
X83162Y323771D01*
X83115Y323792D01*
X83073Y323821D01*
X83031Y323830D01*
X83003Y323842D01*
X82973Y323841D01*
X82931Y323849D01*
X82549Y323849D01*
X82549Y323851D01*
X82931Y323851D01*
X82981Y323863D01*
X83032Y323864D01*
X83064Y323882D01*
X83100Y323890D01*
X83139Y323923D01*
X83184Y323947D01*
X83205Y323977D01*
X83233Y324001D01*
X83254Y324047D01*
X83284Y324089D01*
X83292Y324131D01*
X83304Y324159D01*
X83304Y324174D01*
X83304Y324175D01*
X83304Y324192D01*
X83311Y324231D01*
X83311Y335789D01*
X83490Y335789D01*
X85346Y335495D01*
X87133Y334914D01*
X88807Y334061D01*
X90328Y332956D01*
X91639Y331645D01*
X91672Y331625D01*
X91698Y331597D01*
X91744Y331580D01*
X91786Y331554D01*
X91824Y331550D01*
X91860Y331537D01*
X91909Y331542D01*
X91959Y331537D01*
X91995Y331551D01*
X92033Y331555D01*
X92074Y331581D01*
X92121Y331599D01*
X92147Y331627D01*
X92179Y331647D01*
X92213Y331698D01*
X92238Y331726D01*
X92244Y331746D01*
X92259Y331768D01*
X93092Y333778D01*
X93360Y334046D01*
X93400Y334111D01*
X93444Y334173D01*
X93446Y334185D01*
X93451Y334194D01*
X93455Y334231D01*
X93471Y334315D01*
X93471Y364185D01*
X93459Y364237D01*
X93458Y364274D01*
X93448Y364292D01*
X93441Y364333D01*
X93434Y364344D01*
X93432Y364353D01*
X93408Y364382D01*
X93360Y364454D01*
X93092Y364722D01*
X92259Y366732D01*
X92237Y366763D01*
X92223Y366799D01*
X92187Y366832D01*
X92158Y366872D01*
X92124Y366890D01*
X92096Y366917D01*
X92049Y366931D01*
X92005Y366954D01*
X91967Y366955D01*
X91930Y366966D01*
X91881Y366957D01*
X91832Y366959D01*
X91797Y366943D01*
X91759Y366936D01*
X91709Y366902D01*
X91674Y366886D01*
X91661Y366870D01*
X91639Y366855D01*
X90328Y365544D01*
X88807Y364439D01*
X87133Y363586D01*
X85346Y363005D01*
X83490Y362711D01*
X83311Y362711D01*
X83311Y374269D01*
X83300Y374319D01*
X83298Y374370D01*
X83280Y374402D01*
X83272Y374438D01*
X83239Y374477D01*
X83215Y374522D01*
X83185Y374543D01*
X83162Y374571D01*
X83115Y374592D01*
X83073Y374621D01*
X83031Y374630D01*
X83003Y374642D01*
X82973Y374641D01*
X82931Y374649D01*
X82549Y374649D01*
X82549Y374651D01*
X82931Y374651D01*
X82981Y374663D01*
X83032Y374664D01*
X83064Y374682D01*
X83100Y374690D01*
X83139Y374723D01*
X83184Y374747D01*
X83205Y374777D01*
X83233Y374801D01*
X83254Y374847D01*
X83284Y374889D01*
X83292Y374931D01*
X83304Y374959D01*
X83303Y374989D01*
X83311Y375031D01*
X83311Y386589D01*
X83490Y386589D01*
X85346Y386295D01*
X87133Y385714D01*
X88807Y384861D01*
X90328Y383756D01*
X91639Y382445D01*
X91672Y382425D01*
X91698Y382397D01*
X91744Y382380D01*
X91786Y382354D01*
X91824Y382350D01*
X91860Y382337D01*
X91909Y382342D01*
X91959Y382337D01*
X91995Y382351D01*
X92033Y382355D01*
X92074Y382381D01*
X92121Y382399D01*
X92147Y382427D01*
X92179Y382447D01*
X92213Y382498D01*
X92238Y382526D01*
X92244Y382546D01*
X92259Y382568D01*
X93092Y384578D01*
X93360Y384846D01*
X93400Y384911D01*
X93444Y384973D01*
X93446Y384985D01*
X93451Y384994D01*
X93455Y385031D01*
X93471Y385115D01*
X93471Y517930D01*
X95676Y523252D01*
X157760Y585336D01*
X157800Y585401D01*
X157844Y585463D01*
X157846Y585475D01*
X157851Y585483D01*
X157855Y585520D01*
X157871Y585605D01*
X157871Y604717D01*
X159109Y607705D01*
X161395Y609991D01*
X164383Y611229D01*
X183495Y611229D01*
X183569Y611246D01*
X183644Y611259D01*
X183654Y611266D01*
X183664Y611268D01*
X183693Y611292D01*
X183764Y611340D01*
X225910Y653486D01*
X225950Y653551D01*
X225994Y653613D01*
X225996Y653625D01*
X226001Y653633D01*
X226005Y653670D01*
X226021Y653755D01*
X226021Y826657D01*
X226004Y826731D01*
X225991Y826806D01*
X225984Y826816D01*
X225982Y826826D01*
X225958Y826855D01*
X225910Y826926D01*
X224996Y827840D01*
X222211Y834562D01*
X222211Y841838D01*
X224996Y848560D01*
X230140Y853704D01*
X236862Y856489D01*
X244138Y856489D01*
X250860Y853704D01*
X256004Y848560D01*
X258789Y841838D01*
X258789Y834562D01*
X256004Y827840D01*
X255090Y826926D01*
X255050Y826861D01*
X255006Y826799D01*
X255004Y826787D01*
X254999Y826779D01*
X254995Y826742D01*
X254979Y826657D01*
X254979Y660173D01*
X254990Y660123D01*
X254992Y660072D01*
X255010Y660040D01*
X255018Y660004D01*
X255051Y659965D01*
X255075Y659920D01*
X255105Y659899D01*
X255128Y659871D01*
X255175Y659850D01*
X255217Y659820D01*
X255259Y659812D01*
X255287Y659800D01*
X255317Y659801D01*
X255359Y659793D01*
X434325Y659793D01*
X438807Y657936D01*
X511986Y584757D01*
X513843Y580275D01*
X513843Y552501D01*
X513860Y552427D01*
X513873Y552353D01*
X513880Y552342D01*
X513882Y552333D01*
X513906Y552304D01*
X513954Y552232D01*
X516508Y549678D01*
X519177Y543236D01*
X519177Y536264D01*
X516508Y529822D01*
X511578Y524892D01*
X505136Y522223D01*
X498164Y522223D01*
X491722Y524892D01*
X489219Y527395D01*
X489176Y527422D01*
X489138Y527456D01*
X489103Y527467D01*
X489072Y527486D01*
X489021Y527491D01*
X488972Y527505D01*
X488936Y527499D01*
X488899Y527503D01*
X488852Y527484D01*
X488801Y527476D01*
X488766Y527452D01*
X488737Y527441D01*
X488716Y527418D01*
X488681Y527395D01*
X486178Y524892D01*
X479736Y522223D01*
X472764Y522223D01*
X466322Y524892D01*
X463768Y527446D01*
X463703Y527486D01*
X463641Y527530D01*
X463629Y527532D01*
X463620Y527537D01*
X463583Y527541D01*
X463499Y527557D01*
X417958Y527557D01*
X417884Y527540D01*
X417809Y527527D01*
X417799Y527520D01*
X417789Y527518D01*
X417760Y527494D01*
X417689Y527446D01*
X393304Y503061D01*
X393264Y502996D01*
X393220Y502934D01*
X393218Y502922D01*
X393213Y502914D01*
X393209Y502877D01*
X393193Y502792D01*
X393193Y449708D01*
X393205Y449654D01*
X393206Y449629D01*
X393213Y449617D01*
X393223Y449559D01*
X393230Y449549D01*
X393232Y449539D01*
X393256Y449510D01*
X393304Y449439D01*
X404989Y437754D01*
X405054Y437714D01*
X405116Y437670D01*
X405128Y437668D01*
X405136Y437663D01*
X405173Y437659D01*
X405258Y437643D01*
X407786Y437643D01*
X407860Y437660D01*
X407935Y437673D01*
X407945Y437680D01*
X407955Y437682D01*
X407984Y437706D01*
X408055Y437754D01*
X408182Y437881D01*
X408209Y437924D01*
X408244Y437962D01*
X408254Y437997D01*
X408274Y438028D01*
X408278Y438079D01*
X408293Y438128D01*
X408287Y438164D01*
X408290Y438201D01*
X408272Y438249D01*
X408263Y438299D01*
X408239Y438334D01*
X408229Y438363D01*
X408206Y438384D01*
X408182Y438419D01*
X404627Y441974D01*
X402241Y447733D01*
X402241Y453967D01*
X404627Y459726D01*
X409034Y464133D01*
X414037Y466206D01*
X414046Y466212D01*
X414056Y466214D01*
X414116Y466262D01*
X414178Y466307D01*
X414183Y466316D01*
X414191Y466323D01*
X414223Y466392D01*
X414259Y466460D01*
X414260Y466470D01*
X414264Y466480D01*
X414262Y466557D01*
X414264Y466633D01*
X414260Y466643D01*
X414259Y466653D01*
X414224Y466721D01*
X414192Y466790D01*
X414184Y466797D01*
X414178Y466806D01*
X414064Y466896D01*
X412626Y467628D01*
X411343Y468561D01*
X410221Y469683D01*
X409288Y470966D01*
X408568Y472380D01*
X408078Y473889D01*
X407829Y475457D01*
X407829Y475489D01*
X425069Y475489D01*
X425119Y475500D01*
X425170Y475502D01*
X425202Y475520D01*
X425238Y475528D01*
X425277Y475561D01*
X425322Y475585D01*
X425343Y475615D01*
X425371Y475638D01*
X425392Y475685D01*
X425421Y475727D01*
X425430Y475769D01*
X425442Y475797D01*
X425441Y475827D01*
X425449Y475869D01*
X425449Y476631D01*
X425437Y476681D01*
X425436Y476732D01*
X425418Y476764D01*
X425410Y476800D01*
X425377Y476839D01*
X425353Y476884D01*
X425323Y476905D01*
X425299Y476933D01*
X425253Y476954D01*
X425211Y476984D01*
X425169Y476992D01*
X425141Y477004D01*
X425111Y477003D01*
X425069Y477011D01*
X407829Y477011D01*
X407829Y477043D01*
X408078Y478611D01*
X408568Y480120D01*
X409288Y481534D01*
X410221Y482817D01*
X411343Y483939D01*
X412626Y484872D01*
X414064Y485604D01*
X414072Y485611D01*
X414083Y485614D01*
X414138Y485667D01*
X414197Y485716D01*
X414201Y485726D01*
X414209Y485733D01*
X414235Y485805D01*
X414266Y485875D01*
X414265Y485886D01*
X414269Y485896D01*
X414261Y485972D01*
X414257Y486048D01*
X414252Y486057D01*
X414251Y486068D01*
X414210Y486133D01*
X414173Y486199D01*
X414164Y486205D01*
X414158Y486215D01*
X414037Y486294D01*
X409034Y488367D01*
X404627Y492774D01*
X402241Y498533D01*
X402241Y504767D01*
X404627Y510526D01*
X409034Y514933D01*
X414793Y517319D01*
X436107Y517319D01*
X441866Y514933D01*
X442845Y513954D01*
X442909Y513914D01*
X442971Y513870D01*
X442984Y513868D01*
X442992Y513863D01*
X443029Y513859D01*
X443114Y513843D01*
X463499Y513843D01*
X463573Y513860D01*
X463647Y513873D01*
X463658Y513880D01*
X463667Y513882D01*
X463696Y513906D01*
X463768Y513954D01*
X466322Y516508D01*
X472764Y519177D01*
X479736Y519177D01*
X486178Y516508D01*
X488681Y514005D01*
X488724Y513978D01*
X488762Y513944D01*
X488797Y513933D01*
X488828Y513914D01*
X488879Y513909D01*
X488928Y513895D01*
X488964Y513901D01*
X489001Y513897D01*
X489048Y513916D01*
X489099Y513924D01*
X489134Y513948D01*
X489163Y513959D01*
X489184Y513982D01*
X489219Y514005D01*
X491722Y516508D01*
X498164Y519177D01*
X505136Y519177D01*
X511578Y516508D01*
X514132Y513954D01*
X514197Y513914D01*
X514259Y513870D01*
X514271Y513868D01*
X514280Y513863D01*
X514317Y513859D01*
X514401Y513843D01*
X547242Y513843D01*
X547316Y513860D01*
X547391Y513873D01*
X547401Y513880D01*
X547411Y513882D01*
X547440Y513906D01*
X547511Y513954D01*
X568696Y535139D01*
X568736Y535204D01*
X568780Y535266D01*
X568782Y535278D01*
X568787Y535286D01*
X568791Y535323D01*
X568807Y535408D01*
X568807Y564591D01*
X568796Y564641D01*
X568794Y564692D01*
X568776Y564724D01*
X568768Y564760D01*
X568735Y564799D01*
X568711Y564844D01*
X568681Y564865D01*
X568658Y564893D01*
X568611Y564914D01*
X568569Y564944D01*
X568527Y564952D01*
X568499Y564964D01*
X568469Y564963D01*
X568427Y564971D01*
X564383Y564971D01*
X561395Y566209D01*
X559109Y568495D01*
X557871Y571483D01*
X557871Y604717D01*
X559109Y607705D01*
X561395Y609991D01*
X564383Y611229D01*
X583495Y611229D01*
X583569Y611246D01*
X583644Y611259D01*
X583654Y611266D01*
X583664Y611268D01*
X583693Y611292D01*
X583764Y611340D01*
X614060Y641636D01*
X614100Y641701D01*
X614144Y641763D01*
X614146Y641775D01*
X614151Y641783D01*
X614155Y641820D01*
X614171Y641905D01*
X614171Y800295D01*
X614154Y800369D01*
X614141Y800444D01*
X614134Y800454D01*
X614132Y800464D01*
X614108Y800493D01*
X614060Y800564D01*
X591014Y823610D01*
X590949Y823650D01*
X590887Y823694D01*
X590875Y823696D01*
X590867Y823701D01*
X590830Y823705D01*
X590745Y823721D01*
X582243Y823721D01*
X582169Y823704D01*
X582094Y823691D01*
X582084Y823684D01*
X582074Y823682D01*
X582045Y823658D01*
X581974Y823610D01*
X581060Y822696D01*
X574338Y819911D01*
X567062Y819911D01*
X560340Y822696D01*
X555196Y827840D01*
X552411Y834562D01*
X552411Y841838D01*
X555196Y848560D01*
X560340Y853704D01*
X567062Y856489D01*
X574338Y856489D01*
X581060Y853704D01*
X581974Y852790D01*
X582039Y852750D01*
X582101Y852706D01*
X582113Y852704D01*
X582121Y852699D01*
X582158Y852695D01*
X582243Y852679D01*
X599780Y852679D01*
X605102Y850474D01*
X640924Y814652D01*
X643129Y809330D01*
X643129Y632870D01*
X640924Y627548D01*
X604240Y590864D01*
X604200Y590799D01*
X604156Y590737D01*
X604154Y590725D01*
X604149Y590717D01*
X604145Y590680D01*
X604129Y590595D01*
X604129Y571483D01*
X602891Y568495D01*
X600605Y566209D01*
X597617Y564971D01*
X593573Y564971D01*
X593523Y564960D01*
X593472Y564958D01*
X593440Y564940D01*
X593404Y564932D01*
X593365Y564899D01*
X593320Y564875D01*
X593299Y564845D01*
X593271Y564822D01*
X593250Y564775D01*
X593220Y564733D01*
X593212Y564691D01*
X593200Y564663D01*
X593201Y564640D01*
X593200Y564638D01*
X593200Y564629D01*
X593193Y564591D01*
X593193Y527775D01*
X591336Y523293D01*
X559357Y491314D01*
X554875Y489457D01*
X514401Y489457D01*
X514327Y489440D01*
X514253Y489427D01*
X514242Y489420D01*
X514233Y489418D01*
X514204Y489394D01*
X514132Y489346D01*
X511578Y486792D01*
X505136Y484123D01*
X498164Y484123D01*
X491722Y486792D01*
X489219Y489295D01*
X489176Y489321D01*
X489138Y489356D01*
X489103Y489367D01*
X489072Y489386D01*
X489021Y489391D01*
X488972Y489405D01*
X488936Y489399D01*
X488899Y489403D01*
X488851Y489384D01*
X488801Y489376D01*
X488766Y489352D01*
X488737Y489341D01*
X488716Y489318D01*
X488681Y489295D01*
X486178Y486792D01*
X479736Y484123D01*
X472764Y484123D01*
X466322Y486792D01*
X463768Y489346D01*
X463703Y489386D01*
X463641Y489430D01*
X463629Y489432D01*
X463620Y489437D01*
X463583Y489441D01*
X463499Y489457D01*
X443114Y489457D01*
X443040Y489440D01*
X442965Y489427D01*
X442955Y489420D01*
X442945Y489418D01*
X442916Y489394D01*
X442845Y489346D01*
X441866Y488367D01*
X436863Y486294D01*
X436854Y486288D01*
X436844Y486286D01*
X436784Y486238D01*
X436722Y486193D01*
X436717Y486184D01*
X436709Y486177D01*
X436677Y486108D01*
X436641Y486040D01*
X436640Y486030D01*
X436636Y486020D01*
X436638Y485943D01*
X436636Y485867D01*
X436640Y485857D01*
X436641Y485847D01*
X436676Y485779D01*
X436708Y485710D01*
X436716Y485703D01*
X436722Y485694D01*
X436836Y485604D01*
X438274Y484872D01*
X439557Y483939D01*
X440679Y482817D01*
X441612Y481534D01*
X442332Y480120D01*
X442822Y478611D01*
X443071Y477043D01*
X443071Y477011D01*
X425831Y477011D01*
X425781Y477000D01*
X425730Y476998D01*
X425698Y476980D01*
X425662Y476972D01*
X425623Y476939D01*
X425578Y476915D01*
X425557Y476885D01*
X425529Y476862D01*
X425508Y476815D01*
X425479Y476773D01*
X425470Y476731D01*
X425458Y476703D01*
X425459Y476673D01*
X425451Y476631D01*
X425451Y475869D01*
X425463Y475819D01*
X425464Y475768D01*
X425482Y475736D01*
X425490Y475700D01*
X425523Y475661D01*
X425547Y475616D01*
X425577Y475595D01*
X425601Y475567D01*
X425647Y475546D01*
X425689Y475516D01*
X425731Y475508D01*
X425759Y475496D01*
X425789Y475497D01*
X425831Y475489D01*
X443071Y475489D01*
X443071Y475457D01*
X442822Y473889D01*
X442332Y472380D01*
X441612Y470966D01*
X440679Y469683D01*
X439557Y468561D01*
X438274Y467628D01*
X436836Y466896D01*
X436828Y466889D01*
X436817Y466886D01*
X436762Y466833D01*
X436703Y466784D01*
X436699Y466774D01*
X436691Y466767D01*
X436665Y466695D01*
X436634Y466625D01*
X436635Y466614D01*
X436631Y466604D01*
X436639Y466528D01*
X436643Y466452D01*
X436648Y466443D01*
X436649Y466432D01*
X436690Y466367D01*
X436727Y466301D01*
X436736Y466295D01*
X436742Y466285D01*
X436863Y466206D01*
X441866Y464133D01*
X443861Y462138D01*
X443925Y462098D01*
X443987Y462054D01*
X444000Y462052D01*
X444008Y462047D01*
X444045Y462043D01*
X444130Y462027D01*
X578220Y462027D01*
X578294Y462044D01*
X578369Y462057D01*
X578379Y462064D01*
X578389Y462066D01*
X578418Y462090D01*
X578489Y462138D01*
X580484Y464133D01*
X585054Y466026D01*
X585063Y466032D01*
X585073Y466035D01*
X585133Y466083D01*
X585195Y466127D01*
X585200Y466137D01*
X585208Y466143D01*
X585240Y466213D01*
X585276Y466280D01*
X585277Y466291D01*
X585281Y466301D01*
X585279Y466377D01*
X585281Y466453D01*
X585277Y466463D01*
X585276Y466474D01*
X585241Y466541D01*
X585209Y466611D01*
X585200Y466618D01*
X585195Y466627D01*
X585081Y466716D01*
X584076Y467228D01*
X582793Y468161D01*
X581671Y469283D01*
X580738Y470566D01*
X580018Y471980D01*
X579528Y473489D01*
X579279Y475057D01*
X579279Y475089D01*
X596519Y475089D01*
X596569Y475100D01*
X596620Y475102D01*
X596652Y475120D01*
X596688Y475128D01*
X596727Y475161D01*
X596772Y475185D01*
X596793Y475215D01*
X596821Y475238D01*
X596842Y475285D01*
X596871Y475327D01*
X596880Y475369D01*
X596892Y475397D01*
X596891Y475427D01*
X596899Y475469D01*
X596899Y475851D01*
X596901Y475851D01*
X596901Y475469D01*
X596913Y475419D01*
X596914Y475368D01*
X596932Y475336D01*
X596940Y475300D01*
X596973Y475261D01*
X596997Y475216D01*
X597027Y475195D01*
X597051Y475167D01*
X597097Y475146D01*
X597139Y475116D01*
X597181Y475108D01*
X597209Y475096D01*
X597239Y475097D01*
X597281Y475089D01*
X614521Y475089D01*
X614521Y475057D01*
X614272Y473489D01*
X613782Y471980D01*
X613062Y470566D01*
X612129Y469283D01*
X611007Y468161D01*
X609724Y467228D01*
X608719Y466716D01*
X608711Y466709D01*
X608700Y466706D01*
X608645Y466654D01*
X608586Y466604D01*
X608582Y466595D01*
X608574Y466587D01*
X608548Y466516D01*
X608517Y466446D01*
X608518Y466435D01*
X608514Y466425D01*
X608522Y466349D01*
X608526Y466273D01*
X608531Y466263D01*
X608532Y466252D01*
X608573Y466188D01*
X608610Y466121D01*
X608619Y466115D01*
X608625Y466106D01*
X608746Y466026D01*
X613316Y464133D01*
X617723Y459726D01*
X620109Y453967D01*
X620109Y447733D01*
X617723Y441974D01*
X613316Y437567D01*
X607557Y435181D01*
X586243Y435181D01*
X580484Y437567D01*
X578489Y439562D01*
X578425Y439602D01*
X578363Y439646D01*
X578351Y439648D01*
X578342Y439653D01*
X578305Y439657D01*
X578220Y439673D01*
X444130Y439673D01*
X444056Y439656D01*
X443981Y439643D01*
X443971Y439636D01*
X443961Y439634D01*
X443932Y439610D01*
X443861Y439562D01*
X442718Y438419D01*
X442691Y438376D01*
X442656Y438338D01*
X442646Y438303D01*
X442626Y438272D01*
X442622Y438221D01*
X442607Y438172D01*
X442613Y438136D01*
X442610Y438099D01*
X442628Y438052D01*
X442637Y438001D01*
X442661Y437966D01*
X442671Y437937D01*
X442694Y437916D01*
X442718Y437881D01*
X443861Y436738D01*
X443925Y436698D01*
X443987Y436654D01*
X444000Y436652D01*
X444008Y436647D01*
X444045Y436643D01*
X444130Y436627D01*
X496723Y436627D01*
X500831Y434925D01*
X612594Y323162D01*
X612659Y323122D01*
X612721Y323078D01*
X612733Y323076D01*
X612741Y323071D01*
X612778Y323067D01*
X612863Y323051D01*
X619739Y323051D01*
X626741Y320150D01*
X632100Y314791D01*
X635001Y307789D01*
X635001Y300913D01*
X635018Y300839D01*
X635031Y300764D01*
X635038Y300754D01*
X635040Y300744D01*
X635064Y300716D01*
X635112Y300644D01*
X651587Y284169D01*
X653289Y280061D01*
X653289Y239839D01*
X651587Y235731D01*
X634981Y219125D01*
X630873Y217423D01*
X620604Y217423D01*
X620577Y217417D01*
X620549Y217419D01*
X620494Y217397D01*
X620436Y217384D01*
X620414Y217366D01*
X620388Y217356D01*
X620348Y217312D01*
X620302Y217274D01*
X620291Y217248D01*
X620272Y217227D01*
X620256Y217170D01*
X620231Y217115D01*
X620232Y217087D01*
X620225Y217061D01*
X620236Y217002D01*
X620238Y216942D01*
X620251Y216918D01*
X620256Y216890D01*
X620292Y216842D01*
X620321Y216790D01*
X620343Y216774D01*
X620360Y216752D01*
X620431Y216712D01*
X620462Y216690D01*
X620475Y216688D01*
X620487Y216681D01*
X621118Y216476D01*
X623006Y215514D01*
X624720Y214269D01*
X626219Y212770D01*
X627464Y211056D01*
X628426Y209168D01*
X629081Y207153D01*
X629413Y205060D01*
X629413Y204761D01*
X616331Y204761D01*
X616281Y204750D01*
X616230Y204748D01*
X616198Y204730D01*
X616162Y204722D01*
X616123Y204689D01*
X616078Y204665D01*
X616057Y204635D01*
X616029Y204612D01*
X616008Y204565D01*
X615979Y204523D01*
X615970Y204481D01*
X615958Y204453D01*
X615959Y204423D01*
X615951Y204381D01*
X615951Y203999D01*
X615949Y203999D01*
X615949Y204381D01*
X615937Y204431D01*
X615936Y204482D01*
X615918Y204514D01*
X615910Y204550D01*
X615877Y204589D01*
X615853Y204634D01*
X615823Y204655D01*
X615799Y204683D01*
X615753Y204704D01*
X615711Y204734D01*
X615669Y204742D01*
X615641Y204754D01*
X615611Y204753D01*
X615569Y204761D01*
X602487Y204761D01*
X602487Y205060D01*
X602819Y207153D01*
X603474Y209168D01*
X604436Y211056D01*
X605681Y212770D01*
X607180Y214269D01*
X608894Y215514D01*
X610782Y216476D01*
X611413Y216681D01*
X611437Y216696D01*
X611464Y216702D01*
X611510Y216740D01*
X611561Y216771D01*
X611576Y216795D01*
X611598Y216812D01*
X611622Y216867D01*
X611654Y216917D01*
X611657Y216945D01*
X611669Y216971D01*
X611667Y217030D01*
X611673Y217089D01*
X611663Y217116D01*
X611662Y217144D01*
X611634Y217196D01*
X611613Y217252D01*
X611593Y217271D01*
X611579Y217296D01*
X611531Y217330D01*
X611487Y217371D01*
X611461Y217380D01*
X611438Y217396D01*
X611359Y217411D01*
X611322Y217422D01*
X611309Y217421D01*
X611296Y217423D01*
X608037Y217423D01*
X607963Y217406D01*
X607888Y217393D01*
X607878Y217386D01*
X607868Y217384D01*
X607840Y217360D01*
X607768Y217312D01*
X596881Y206425D01*
X592773Y204723D01*
X588645Y204723D01*
X588595Y204712D01*
X588544Y204710D01*
X588512Y204692D01*
X588476Y204684D01*
X588437Y204651D01*
X588392Y204627D01*
X588371Y204597D01*
X588343Y204574D01*
X588322Y204527D01*
X588292Y204485D01*
X588284Y204443D01*
X588272Y204415D01*
X588273Y204385D01*
X588265Y204343D01*
X588265Y150673D01*
X588282Y150599D01*
X588295Y150525D01*
X588302Y150514D01*
X588304Y150505D01*
X588328Y150476D01*
X588376Y150404D01*
X590586Y148194D01*
X590651Y148154D01*
X590713Y148110D01*
X590725Y148108D01*
X590734Y148103D01*
X590771Y148099D01*
X590855Y148083D01*
X628345Y148083D01*
X628419Y148100D01*
X628493Y148113D01*
X628504Y148120D01*
X628513Y148122D01*
X628542Y148146D01*
X628614Y148194D01*
X632184Y151764D01*
X638626Y154433D01*
X645598Y154433D01*
X652040Y151764D01*
X656970Y146834D01*
X659639Y140392D01*
X659639Y133420D01*
X656970Y126978D01*
X652040Y122048D01*
X645598Y119379D01*
X638626Y119379D01*
X632184Y122048D01*
X628614Y125618D01*
X628549Y125658D01*
X628487Y125702D01*
X628475Y125704D01*
X628466Y125709D01*
X628429Y125713D01*
X628345Y125729D01*
X590855Y125729D01*
X590781Y125712D01*
X590707Y125699D01*
X590696Y125692D01*
X590687Y125690D01*
X590658Y125666D01*
X590586Y125618D01*
X587016Y122048D01*
X580574Y119379D01*
X575525Y119379D01*
X575451Y119362D01*
X575376Y119349D01*
X575366Y119342D01*
X575356Y119340D01*
X575328Y119316D01*
X575256Y119268D01*
X573513Y117525D01*
X569405Y115823D01*
X552080Y115823D01*
X552006Y115806D01*
X551931Y115793D01*
X551921Y115786D01*
X551911Y115784D01*
X551882Y115760D01*
X551811Y115712D01*
X550868Y114769D01*
X550841Y114726D01*
X550806Y114688D01*
X550796Y114653D01*
X550776Y114622D01*
X550772Y114571D01*
X550757Y114522D01*
X550763Y114486D01*
X550760Y114449D01*
X550778Y114402D01*
X550787Y114351D01*
X550811Y114316D01*
X550821Y114287D01*
X550844Y114266D01*
X550868Y114231D01*
X554223Y110876D01*
X556609Y105117D01*
X556609Y103251D01*
X556620Y103201D01*
X556622Y103150D01*
X556640Y103118D01*
X556648Y103082D01*
X556681Y103043D01*
X556705Y102998D01*
X556735Y102977D01*
X556758Y102949D01*
X556805Y102928D01*
X556847Y102898D01*
X556889Y102890D01*
X556917Y102878D01*
X556947Y102879D01*
X556989Y102871D01*
X563321Y102871D01*
X563395Y102888D01*
X563469Y102901D01*
X563480Y102908D01*
X563489Y102910D01*
X563518Y102934D01*
X563590Y102982D01*
X567160Y106552D01*
X573602Y109221D01*
X580574Y109221D01*
X587016Y106552D01*
X590586Y102982D01*
X590651Y102942D01*
X590713Y102898D01*
X590725Y102896D01*
X590734Y102891D01*
X590771Y102887D01*
X590855Y102871D01*
X628345Y102871D01*
X628419Y102888D01*
X628493Y102901D01*
X628504Y102908D01*
X628513Y102910D01*
X628542Y102934D01*
X628614Y102982D01*
X632184Y106552D01*
X638626Y109221D01*
X645598Y109221D01*
X652040Y106552D01*
X656970Y101622D01*
X659639Y95180D01*
X659639Y88208D01*
X656970Y81766D01*
X652040Y76836D01*
X645598Y74167D01*
X638626Y74167D01*
X632184Y76836D01*
X628614Y80406D01*
X628549Y80446D01*
X628487Y80490D01*
X628475Y80492D01*
X628466Y80497D01*
X628429Y80501D01*
X628345Y80517D01*
X590855Y80517D01*
X590781Y80500D01*
X590707Y80487D01*
X590696Y80480D01*
X590687Y80478D01*
X590658Y80454D01*
X590586Y80406D01*
X587016Y76836D01*
X580574Y74167D01*
X573602Y74167D01*
X567160Y76836D01*
X563590Y80406D01*
X563525Y80446D01*
X563463Y80490D01*
X563451Y80492D01*
X563442Y80497D01*
X563405Y80501D01*
X563321Y80517D01*
X541483Y80517D01*
X537375Y82219D01*
X533374Y86220D01*
X533309Y86260D01*
X533247Y86304D01*
X533235Y86306D01*
X533227Y86311D01*
X533190Y86315D01*
X533105Y86331D01*
X522743Y86331D01*
X516984Y88717D01*
X515389Y90312D01*
X515325Y90352D01*
X515263Y90396D01*
X515250Y90398D01*
X515242Y90403D01*
X515205Y90407D01*
X515120Y90423D01*
X513207Y90423D01*
X513157Y90412D01*
X513106Y90410D01*
X513074Y90392D01*
X513038Y90384D01*
X512999Y90351D01*
X512954Y90327D01*
X512933Y90297D01*
X512905Y90274D01*
X512884Y90227D01*
X512854Y90185D01*
X512846Y90143D01*
X512834Y90115D01*
X512835Y90088D01*
X512834Y90086D01*
X512834Y90080D01*
X512827Y90043D01*
X512827Y89327D01*
X512844Y89253D01*
X512857Y89178D01*
X512864Y89168D01*
X512866Y89158D01*
X512890Y89129D01*
X512938Y89058D01*
X513541Y88455D01*
X514779Y85467D01*
X514779Y71233D01*
X513541Y68245D01*
X511255Y65959D01*
X509425Y65201D01*
X509374Y65164D01*
X509318Y65134D01*
X509304Y65114D01*
X509285Y65100D01*
X509255Y65044D01*
X509218Y64992D01*
X509213Y64966D01*
X509203Y64947D01*
X509202Y64909D01*
X509191Y64850D01*
X509191Y62111D01*
X502031Y62111D01*
X501981Y62100D01*
X501930Y62098D01*
X501898Y62080D01*
X501862Y62072D01*
X501823Y62039D01*
X501778Y62015D01*
X501757Y61985D01*
X501729Y61961D01*
X501708Y61915D01*
X501678Y61873D01*
X501670Y61831D01*
X501658Y61803D01*
X501659Y61773D01*
X501651Y61731D01*
X501651Y61349D01*
X501649Y61349D01*
X501649Y61731D01*
X501638Y61781D01*
X501636Y61832D01*
X501618Y61864D01*
X501610Y61900D01*
X501577Y61939D01*
X501553Y61984D01*
X501523Y62005D01*
X501499Y62033D01*
X501453Y62054D01*
X501411Y62084D01*
X501369Y62092D01*
X501341Y62104D01*
X501311Y62103D01*
X501269Y62111D01*
X494109Y62111D01*
X494109Y64850D01*
X494095Y64912D01*
X494088Y64975D01*
X494075Y64995D01*
X494070Y65019D01*
X494029Y65068D01*
X493995Y65121D01*
X493973Y65136D01*
X493960Y65152D01*
X493925Y65168D01*
X493875Y65201D01*
X492045Y65959D01*
X489759Y68245D01*
X488521Y71233D01*
X488521Y85467D01*
X489759Y88455D01*
X490362Y89058D01*
X490402Y89122D01*
X490446Y89184D01*
X490448Y89196D01*
X490453Y89205D01*
X490457Y89242D01*
X490473Y89327D01*
X490473Y90357D01*
X490459Y90419D01*
X490452Y90482D01*
X490439Y90502D01*
X490434Y90526D01*
X490393Y90575D01*
X490359Y90628D01*
X490337Y90643D01*
X490324Y90659D01*
X490289Y90675D01*
X490239Y90708D01*
X488941Y91246D01*
X488939Y91246D01*
X488937Y91248D01*
X454905Y104844D01*
X454899Y104845D01*
X454764Y104871D01*
X444233Y104871D01*
X441245Y106109D01*
X438959Y108395D01*
X437721Y111383D01*
X437721Y125617D01*
X438234Y126854D01*
X438246Y126930D01*
X438263Y127004D01*
X438260Y127016D01*
X438262Y127025D01*
X438251Y127061D01*
X438234Y127146D01*
X437721Y128383D01*
X437721Y130481D01*
X437712Y130518D01*
X437714Y130557D01*
X437693Y130602D01*
X437682Y130650D01*
X437657Y130679D01*
X437641Y130714D01*
X437603Y130745D01*
X437572Y130783D01*
X437536Y130799D01*
X437507Y130823D01*
X437459Y130834D01*
X437413Y130854D01*
X437375Y130853D01*
X437337Y130861D01*
X437278Y130849D01*
X437240Y130848D01*
X437222Y130838D01*
X437195Y130832D01*
X436107Y130381D01*
X414793Y130381D01*
X409034Y132767D01*
X404627Y137174D01*
X402241Y142933D01*
X402241Y149167D01*
X404627Y154926D01*
X408182Y158481D01*
X408209Y158524D01*
X408244Y158562D01*
X408254Y158597D01*
X408274Y158628D01*
X408278Y158679D01*
X408293Y158728D01*
X408287Y158764D01*
X408290Y158801D01*
X408272Y158849D01*
X408263Y158899D01*
X408239Y158934D01*
X408229Y158963D01*
X408206Y158984D01*
X408182Y159019D01*
X404627Y162574D01*
X402241Y168333D01*
X402241Y174567D01*
X404627Y180326D01*
X408182Y183881D01*
X408209Y183924D01*
X408244Y183962D01*
X408254Y183997D01*
X408274Y184028D01*
X408278Y184079D01*
X408293Y184128D01*
X408287Y184164D01*
X408290Y184201D01*
X408272Y184249D01*
X408263Y184299D01*
X408239Y184334D01*
X408229Y184363D01*
X408206Y184384D01*
X408182Y184419D01*
X404627Y187974D01*
X402241Y193733D01*
X402241Y199967D01*
X404627Y205726D01*
X408182Y209281D01*
X408209Y209324D01*
X408244Y209362D01*
X408254Y209397D01*
X408274Y209428D01*
X408278Y209479D01*
X408293Y209528D01*
X408287Y209564D01*
X408290Y209601D01*
X408272Y209649D01*
X408263Y209699D01*
X408239Y209734D01*
X408229Y209763D01*
X408206Y209784D01*
X408182Y209819D01*
X407039Y210962D01*
X406975Y211002D01*
X406913Y211046D01*
X406900Y211048D01*
X406892Y211053D01*
X406855Y211057D01*
X406770Y211073D01*
X406360Y211073D01*
X406330Y211066D01*
X406300Y211069D01*
X406247Y211047D01*
X406191Y211034D01*
X406168Y211015D01*
X406140Y211003D01*
X406087Y210948D01*
X406057Y210924D01*
X406052Y210911D01*
X406040Y210899D01*
X295711Y39277D01*
X295702Y39250D01*
X295680Y39217D01*
X295225Y38119D01*
X294531Y37425D01*
X294518Y37404D01*
X294500Y37389D01*
X294495Y37377D01*
X294480Y37362D01*
X293949Y36536D01*
X292973Y35858D01*
X292954Y35837D01*
X292921Y35815D01*
X292081Y34975D01*
X291174Y34599D01*
X291147Y34580D01*
X291103Y34560D01*
X290297Y34001D01*
X289136Y33748D01*
X289110Y33736D01*
X289071Y33728D01*
X287973Y33273D01*
X286992Y33273D01*
X286959Y33266D01*
X286911Y33265D01*
X285952Y33056D01*
X284783Y33267D01*
X284754Y33266D01*
X284715Y33273D01*
X254427Y33273D01*
X254353Y33256D01*
X254278Y33243D01*
X254268Y33236D01*
X254258Y33234D01*
X254229Y33210D01*
X254158Y33162D01*
X253555Y32559D01*
X250567Y31321D01*
X236333Y31321D01*
X235096Y31834D01*
X235020Y31846D01*
X234946Y31863D01*
X234934Y31860D01*
X234925Y31862D01*
X234889Y31851D01*
X234805Y31834D01*
X233567Y31321D01*
X219333Y31321D01*
G37*
%LPD*%
G36*
X401911Y322338D02*
X401911Y322338D01*
X401962Y322340D01*
X401994Y322358D01*
X402030Y322366D01*
X402069Y322399D01*
X402114Y322423D01*
X402135Y322453D01*
X402163Y322476D01*
X402184Y322523D01*
X402214Y322565D01*
X402222Y322607D01*
X402234Y322635D01*
X402234Y322652D01*
X402234Y322654D01*
X402234Y322668D01*
X402241Y322707D01*
X402241Y326967D01*
X404627Y332726D01*
X408182Y336281D01*
X408209Y336324D01*
X408244Y336362D01*
X408254Y336397D01*
X408274Y336428D01*
X408278Y336479D01*
X408293Y336528D01*
X408287Y336564D01*
X408290Y336601D01*
X408272Y336649D01*
X408263Y336699D01*
X408239Y336734D01*
X408229Y336763D01*
X408206Y336784D01*
X408182Y336819D01*
X404627Y340374D01*
X402241Y346133D01*
X402241Y352367D01*
X404627Y358126D01*
X408182Y361681D01*
X408209Y361724D01*
X408244Y361762D01*
X408254Y361797D01*
X408274Y361828D01*
X408278Y361879D01*
X408293Y361928D01*
X408287Y361964D01*
X408290Y362001D01*
X408272Y362048D01*
X408263Y362099D01*
X408239Y362134D01*
X408229Y362163D01*
X408206Y362184D01*
X408182Y362219D01*
X404627Y365774D01*
X402241Y371533D01*
X402241Y377767D01*
X404627Y383526D01*
X408182Y387081D01*
X408209Y387124D01*
X408244Y387162D01*
X408254Y387197D01*
X408274Y387228D01*
X408278Y387279D01*
X408293Y387328D01*
X408287Y387364D01*
X408290Y387401D01*
X408272Y387449D01*
X408263Y387499D01*
X408239Y387534D01*
X408229Y387563D01*
X408206Y387584D01*
X408182Y387619D01*
X404627Y391174D01*
X402241Y396933D01*
X402241Y403167D01*
X404627Y408926D01*
X408182Y412481D01*
X408209Y412524D01*
X408244Y412562D01*
X408254Y412597D01*
X408274Y412628D01*
X408278Y412679D01*
X408293Y412728D01*
X408287Y412764D01*
X408290Y412801D01*
X408272Y412848D01*
X408263Y412899D01*
X408239Y412934D01*
X408229Y412963D01*
X408206Y412984D01*
X408182Y413019D01*
X408055Y413146D01*
X407990Y413186D01*
X407929Y413230D01*
X407916Y413232D01*
X407908Y413237D01*
X407871Y413241D01*
X407786Y413257D01*
X397625Y413257D01*
X393143Y415114D01*
X370664Y437593D01*
X368807Y442075D01*
X368807Y510425D01*
X370664Y514907D01*
X374147Y518390D01*
X390031Y534274D01*
X390041Y534290D01*
X390047Y534295D01*
X390049Y534300D01*
X390065Y534312D01*
X390090Y534369D01*
X390122Y534421D01*
X390125Y534447D01*
X390135Y534471D01*
X390133Y534532D01*
X390139Y534594D01*
X390130Y534618D01*
X390129Y534644D01*
X390099Y534698D01*
X390077Y534756D01*
X390058Y534773D01*
X390046Y534796D01*
X389996Y534831D01*
X389950Y534873D01*
X389925Y534881D01*
X389904Y534896D01*
X389820Y534912D01*
X389784Y534923D01*
X389774Y534921D01*
X389762Y534923D01*
X203872Y534923D01*
X203818Y534911D01*
X203763Y534907D01*
X203735Y534891D01*
X203704Y534884D01*
X203661Y534849D01*
X203613Y534821D01*
X203595Y534794D01*
X203570Y534774D01*
X203547Y534723D01*
X203517Y534677D01*
X203512Y534645D01*
X203499Y534615D01*
X203501Y534560D01*
X203494Y534505D01*
X203504Y534475D01*
X203506Y534442D01*
X203532Y534394D01*
X203550Y534341D01*
X203575Y534314D01*
X203588Y534290D01*
X203612Y534273D01*
X203613Y534273D01*
X203617Y534269D01*
X203649Y534235D01*
X204607Y533539D01*
X205729Y532417D01*
X206662Y531134D01*
X207382Y529720D01*
X207872Y528211D01*
X208121Y526643D01*
X208121Y526611D01*
X190881Y526611D01*
X190831Y526600D01*
X190780Y526598D01*
X190748Y526580D01*
X190712Y526572D01*
X190673Y526539D01*
X190628Y526515D01*
X190607Y526485D01*
X190579Y526462D01*
X190558Y526415D01*
X190529Y526373D01*
X190520Y526331D01*
X190508Y526303D01*
X190509Y526273D01*
X190501Y526231D01*
X190501Y525469D01*
X190513Y525419D01*
X190514Y525368D01*
X190532Y525336D01*
X190540Y525300D01*
X190573Y525261D01*
X190597Y525216D01*
X190627Y525195D01*
X190651Y525167D01*
X190697Y525146D01*
X190739Y525116D01*
X190781Y525108D01*
X190809Y525096D01*
X190839Y525097D01*
X190881Y525089D01*
X208121Y525089D01*
X208121Y525057D01*
X207872Y523489D01*
X207382Y521980D01*
X206662Y520566D01*
X205729Y519283D01*
X204607Y518161D01*
X203324Y517228D01*
X202319Y516716D01*
X202311Y516709D01*
X202300Y516706D01*
X202245Y516654D01*
X202186Y516604D01*
X202182Y516595D01*
X202174Y516587D01*
X202148Y516516D01*
X202117Y516446D01*
X202118Y516435D01*
X202114Y516425D01*
X202122Y516349D01*
X202126Y516273D01*
X202131Y516263D01*
X202132Y516252D01*
X202173Y516188D01*
X202210Y516121D01*
X202219Y516115D01*
X202225Y516106D01*
X202346Y516026D01*
X206916Y514133D01*
X208911Y512138D01*
X208975Y512098D01*
X209037Y512054D01*
X209049Y512052D01*
X209058Y512047D01*
X209095Y512043D01*
X209180Y512027D01*
X253570Y512027D01*
X253644Y512044D01*
X253719Y512057D01*
X253729Y512064D01*
X253739Y512066D01*
X253768Y512090D01*
X253839Y512138D01*
X256634Y514933D01*
X262393Y517319D01*
X283707Y517319D01*
X289466Y514933D01*
X293873Y510526D01*
X296259Y504767D01*
X296259Y498533D01*
X293873Y492774D01*
X290318Y489219D01*
X290291Y489176D01*
X290256Y489138D01*
X290246Y489103D01*
X290226Y489072D01*
X290222Y489021D01*
X290207Y488972D01*
X290213Y488936D01*
X290210Y488899D01*
X290228Y488851D01*
X290237Y488801D01*
X290261Y488766D01*
X290271Y488737D01*
X290294Y488716D01*
X290318Y488681D01*
X293873Y485126D01*
X296259Y479367D01*
X296259Y473133D01*
X293873Y467374D01*
X290318Y463819D01*
X290291Y463776D01*
X290256Y463738D01*
X290246Y463703D01*
X290226Y463672D01*
X290222Y463621D01*
X290207Y463572D01*
X290213Y463536D01*
X290210Y463499D01*
X290228Y463451D01*
X290237Y463401D01*
X290261Y463366D01*
X290271Y463337D01*
X290294Y463316D01*
X290318Y463281D01*
X293873Y459726D01*
X296259Y453967D01*
X296259Y447733D01*
X293873Y441974D01*
X289466Y437567D01*
X284463Y435494D01*
X284454Y435488D01*
X284444Y435486D01*
X284384Y435438D01*
X284322Y435393D01*
X284317Y435384D01*
X284309Y435377D01*
X284277Y435308D01*
X284241Y435240D01*
X284240Y435230D01*
X284236Y435220D01*
X284238Y435143D01*
X284236Y435067D01*
X284240Y435057D01*
X284241Y435047D01*
X284276Y434979D01*
X284308Y434910D01*
X284316Y434903D01*
X284322Y434894D01*
X284436Y434804D01*
X285874Y434072D01*
X287157Y433139D01*
X288279Y432017D01*
X289212Y430734D01*
X289932Y429320D01*
X290422Y427811D01*
X290671Y426243D01*
X290671Y426211D01*
X273431Y426211D01*
X273381Y426200D01*
X273330Y426198D01*
X273298Y426180D01*
X273262Y426172D01*
X273223Y426139D01*
X273178Y426115D01*
X273157Y426085D01*
X273129Y426062D01*
X273108Y426015D01*
X273079Y425973D01*
X273070Y425931D01*
X273058Y425903D01*
X273059Y425873D01*
X273051Y425831D01*
X273051Y425069D01*
X273063Y425019D01*
X273064Y424968D01*
X273082Y424936D01*
X273090Y424900D01*
X273123Y424861D01*
X273147Y424816D01*
X273177Y424795D01*
X273201Y424767D01*
X273247Y424746D01*
X273289Y424716D01*
X273331Y424708D01*
X273359Y424696D01*
X273389Y424697D01*
X273431Y424689D01*
X290671Y424689D01*
X290671Y424657D01*
X290422Y423089D01*
X289932Y421580D01*
X289212Y420166D01*
X288279Y418883D01*
X287157Y417761D01*
X285874Y416828D01*
X284436Y416096D01*
X284428Y416089D01*
X284417Y416086D01*
X284362Y416033D01*
X284303Y415984D01*
X284299Y415974D01*
X284291Y415967D01*
X284265Y415895D01*
X284234Y415825D01*
X284235Y415814D01*
X284231Y415804D01*
X284239Y415728D01*
X284243Y415652D01*
X284248Y415643D01*
X284249Y415632D01*
X284290Y415567D01*
X284327Y415501D01*
X284336Y415495D01*
X284342Y415485D01*
X284463Y415406D01*
X289466Y413333D01*
X293873Y408926D01*
X296259Y403167D01*
X296259Y396933D01*
X295101Y394138D01*
X295090Y394075D01*
X295072Y394014D01*
X295076Y393990D01*
X295073Y393967D01*
X295091Y393906D01*
X295102Y393843D01*
X295117Y393821D01*
X295123Y393801D01*
X295149Y393774D01*
X295183Y393723D01*
X366468Y322438D01*
X366533Y322398D01*
X366595Y322354D01*
X366607Y322352D01*
X366615Y322347D01*
X366652Y322343D01*
X366737Y322327D01*
X401861Y322327D01*
X401911Y322338D01*
G37*
G36*
X215547Y385844D02*
X215547Y385844D01*
X215622Y385857D01*
X215632Y385864D01*
X215642Y385866D01*
X215671Y385890D01*
X215742Y385938D01*
X216345Y386541D01*
X219333Y387779D01*
X233567Y387779D01*
X234804Y387266D01*
X234880Y387254D01*
X234954Y387237D01*
X234966Y387240D01*
X234975Y387238D01*
X235011Y387249D01*
X235096Y387266D01*
X236333Y387779D01*
X250567Y387779D01*
X253555Y386541D01*
X254130Y385966D01*
X254173Y385939D01*
X254210Y385905D01*
X254246Y385894D01*
X254277Y385875D01*
X254328Y385870D01*
X254376Y385855D01*
X254413Y385862D01*
X254449Y385858D01*
X254497Y385876D01*
X254547Y385885D01*
X254583Y385909D01*
X254611Y385920D01*
X254632Y385942D01*
X254667Y385966D01*
X255782Y387081D01*
X255809Y387124D01*
X255844Y387162D01*
X255854Y387197D01*
X255874Y387228D01*
X255878Y387279D01*
X255893Y387328D01*
X255887Y387364D01*
X255890Y387401D01*
X255872Y387448D01*
X255863Y387499D01*
X255839Y387534D01*
X255829Y387563D01*
X255806Y387584D01*
X255782Y387619D01*
X252227Y391174D01*
X249841Y396933D01*
X249841Y403167D01*
X252227Y408926D01*
X256634Y413333D01*
X261637Y415406D01*
X261646Y415412D01*
X261656Y415414D01*
X261716Y415462D01*
X261778Y415507D01*
X261783Y415516D01*
X261791Y415523D01*
X261823Y415592D01*
X261859Y415660D01*
X261860Y415670D01*
X261864Y415680D01*
X261862Y415757D01*
X261864Y415833D01*
X261860Y415843D01*
X261859Y415853D01*
X261824Y415921D01*
X261792Y415990D01*
X261784Y415997D01*
X261778Y416006D01*
X261664Y416096D01*
X260226Y416828D01*
X258943Y417761D01*
X257821Y418883D01*
X256888Y420166D01*
X256168Y421580D01*
X255678Y423089D01*
X255429Y424657D01*
X255429Y424689D01*
X272669Y424689D01*
X272719Y424700D01*
X272770Y424702D01*
X272802Y424720D01*
X272838Y424728D01*
X272877Y424761D01*
X272922Y424785D01*
X272943Y424815D01*
X272971Y424838D01*
X272992Y424885D01*
X273021Y424927D01*
X273030Y424969D01*
X273042Y424997D01*
X273041Y425027D01*
X273049Y425069D01*
X273049Y425831D01*
X273037Y425881D01*
X273036Y425932D01*
X273018Y425964D01*
X273010Y426000D01*
X272977Y426039D01*
X272953Y426084D01*
X272923Y426105D01*
X272899Y426133D01*
X272853Y426154D01*
X272811Y426184D01*
X272769Y426192D01*
X272741Y426204D01*
X272711Y426203D01*
X272669Y426211D01*
X255429Y426211D01*
X255429Y426243D01*
X255678Y427811D01*
X256168Y429320D01*
X256888Y430734D01*
X257821Y432017D01*
X258943Y433139D01*
X260226Y434072D01*
X261664Y434804D01*
X261672Y434811D01*
X261683Y434814D01*
X261738Y434867D01*
X261797Y434916D01*
X261801Y434926D01*
X261809Y434933D01*
X261835Y435005D01*
X261866Y435075D01*
X261865Y435086D01*
X261869Y435096D01*
X261861Y435172D01*
X261857Y435248D01*
X261852Y435257D01*
X261851Y435268D01*
X261810Y435333D01*
X261773Y435399D01*
X261764Y435405D01*
X261758Y435415D01*
X261637Y435494D01*
X256634Y437567D01*
X252227Y441974D01*
X249841Y447733D01*
X249841Y453967D01*
X252227Y459726D01*
X255782Y463281D01*
X255809Y463324D01*
X255844Y463362D01*
X255854Y463397D01*
X255874Y463428D01*
X255878Y463479D01*
X255893Y463528D01*
X255887Y463564D01*
X255890Y463601D01*
X255872Y463648D01*
X255863Y463699D01*
X255839Y463734D01*
X255829Y463763D01*
X255806Y463784D01*
X255782Y463819D01*
X255039Y464562D01*
X254975Y464602D01*
X254913Y464646D01*
X254900Y464648D01*
X254892Y464653D01*
X254855Y464657D01*
X254770Y464673D01*
X209180Y464673D01*
X209106Y464656D01*
X209031Y464643D01*
X209021Y464636D01*
X209011Y464634D01*
X208982Y464610D01*
X208911Y464562D01*
X207968Y463619D01*
X207941Y463576D01*
X207906Y463538D01*
X207896Y463503D01*
X207876Y463472D01*
X207872Y463421D01*
X207857Y463372D01*
X207863Y463336D01*
X207860Y463299D01*
X207878Y463251D01*
X207887Y463201D01*
X207911Y463166D01*
X207921Y463137D01*
X207944Y463116D01*
X207968Y463081D01*
X211323Y459726D01*
X213709Y453967D01*
X213709Y447733D01*
X211323Y441974D01*
X206916Y437567D01*
X201157Y435181D01*
X179843Y435181D01*
X174084Y437567D01*
X172089Y439562D01*
X172025Y439602D01*
X171963Y439646D01*
X171950Y439648D01*
X171942Y439653D01*
X171905Y439657D01*
X171820Y439673D01*
X162877Y439673D01*
X158769Y441375D01*
X142925Y457219D01*
X141223Y461327D01*
X141223Y526929D01*
X141217Y526954D01*
X141220Y526980D01*
X141210Y527005D01*
X141210Y527021D01*
X141196Y527047D01*
X141184Y527098D01*
X141167Y527118D01*
X141158Y527142D01*
X141130Y527168D01*
X141127Y527173D01*
X141116Y527181D01*
X141113Y527184D01*
X141074Y527232D01*
X141050Y527242D01*
X141031Y527260D01*
X140972Y527277D01*
X140915Y527303D01*
X140890Y527302D01*
X140865Y527309D01*
X140804Y527298D01*
X140742Y527296D01*
X140720Y527284D01*
X140694Y527279D01*
X140669Y527262D01*
X140666Y527261D01*
X140656Y527253D01*
X140623Y527231D01*
X140590Y527213D01*
X140584Y527205D01*
X140574Y527198D01*
X122540Y509164D01*
X122500Y509099D01*
X122456Y509037D01*
X122454Y509025D01*
X122449Y509017D01*
X122445Y508980D01*
X122429Y508895D01*
X122429Y411607D01*
X122440Y411557D01*
X122442Y411506D01*
X122460Y411474D01*
X122468Y411438D01*
X122501Y411399D01*
X122525Y411354D01*
X122555Y411333D01*
X122578Y411305D01*
X122625Y411284D01*
X122667Y411254D01*
X122709Y411246D01*
X122737Y411234D01*
X122767Y411235D01*
X122809Y411227D01*
X141923Y411227D01*
X146031Y409525D01*
X149229Y406328D01*
X164543Y391014D01*
X164597Y390980D01*
X164646Y390940D01*
X164669Y390935D01*
X164690Y390922D01*
X164753Y390916D01*
X164815Y390902D01*
X164841Y390908D01*
X164862Y390906D01*
X164897Y390919D01*
X164957Y390931D01*
X167964Y392177D01*
X174936Y392177D01*
X181378Y389508D01*
X183881Y387005D01*
X183924Y386978D01*
X183962Y386944D01*
X183997Y386933D01*
X184028Y386914D01*
X184079Y386909D01*
X184128Y386895D01*
X184164Y386901D01*
X184201Y386897D01*
X184248Y386916D01*
X184299Y386924D01*
X184334Y386948D01*
X184363Y386959D01*
X184384Y386982D01*
X184419Y387005D01*
X186922Y389508D01*
X193364Y392177D01*
X200336Y392177D01*
X206778Y389508D01*
X210348Y385938D01*
X210413Y385898D01*
X210475Y385854D01*
X210487Y385852D01*
X210496Y385847D01*
X210533Y385843D01*
X210617Y385827D01*
X215473Y385827D01*
X215547Y385844D01*
G37*
G36*
X585837Y227094D02*
X585837Y227094D01*
X585912Y227107D01*
X585922Y227114D01*
X585932Y227116D01*
X585960Y227140D01*
X586032Y227188D01*
X596919Y238075D01*
X601027Y239777D01*
X602313Y239777D01*
X602339Y239783D01*
X602364Y239780D01*
X602422Y239802D01*
X602482Y239816D01*
X602502Y239833D01*
X602526Y239842D01*
X602568Y239887D01*
X602616Y239926D01*
X602626Y239950D01*
X602644Y239969D01*
X602661Y240028D01*
X602687Y240085D01*
X602686Y240110D01*
X602693Y240135D01*
X602683Y240196D01*
X602680Y240258D01*
X602668Y240280D01*
X602663Y240306D01*
X602615Y240377D01*
X602597Y240410D01*
X602589Y240416D01*
X602582Y240426D01*
X599800Y243209D01*
X596899Y250211D01*
X596899Y252887D01*
X596882Y252961D01*
X596869Y253036D01*
X596862Y253046D01*
X596860Y253056D01*
X596836Y253084D01*
X596788Y253156D01*
X463134Y386810D01*
X463069Y386850D01*
X463007Y386894D01*
X462995Y386896D01*
X462987Y386901D01*
X462950Y386905D01*
X462865Y386921D01*
X458583Y386921D01*
X457346Y387434D01*
X457270Y387446D01*
X457196Y387463D01*
X457184Y387460D01*
X457175Y387462D01*
X457139Y387451D01*
X457055Y387434D01*
X455817Y386921D01*
X443796Y386921D01*
X443771Y386915D01*
X443745Y386918D01*
X443687Y386896D01*
X443627Y386882D01*
X443607Y386865D01*
X443583Y386856D01*
X443541Y386811D01*
X443493Y386772D01*
X443483Y386748D01*
X443465Y386729D01*
X443448Y386670D01*
X443422Y386613D01*
X443423Y386588D01*
X443416Y386563D01*
X443427Y386502D01*
X443429Y386440D01*
X443441Y386418D01*
X443446Y386392D01*
X443494Y386321D01*
X443512Y386288D01*
X443520Y386282D01*
X443527Y386272D01*
X446273Y383526D01*
X448659Y377767D01*
X448659Y371533D01*
X446273Y365774D01*
X442718Y362219D01*
X442691Y362176D01*
X442656Y362138D01*
X442646Y362103D01*
X442626Y362072D01*
X442622Y362021D01*
X442607Y361972D01*
X442613Y361936D01*
X442610Y361899D01*
X442628Y361851D01*
X442637Y361801D01*
X442661Y361766D01*
X442671Y361737D01*
X442694Y361716D01*
X442718Y361681D01*
X443861Y360538D01*
X443925Y360498D01*
X443987Y360454D01*
X444000Y360452D01*
X444008Y360447D01*
X444045Y360443D01*
X444130Y360427D01*
X446723Y360427D01*
X450831Y358725D01*
X486995Y322561D01*
X488697Y318453D01*
X488697Y300076D01*
X488709Y300024D01*
X488711Y299971D01*
X488728Y299941D01*
X488736Y299907D01*
X488770Y299866D01*
X488796Y299820D01*
X488824Y299800D01*
X488846Y299774D01*
X488895Y299752D01*
X488939Y299722D01*
X488973Y299717D01*
X489005Y299703D01*
X489058Y299705D01*
X489110Y299697D01*
X489149Y299708D01*
X489178Y299709D01*
X489206Y299725D01*
X489250Y299737D01*
X490240Y300242D01*
X491749Y300732D01*
X493317Y300981D01*
X500889Y300981D01*
X500889Y291281D01*
X500900Y291231D01*
X500902Y291180D01*
X500920Y291148D01*
X500928Y291112D01*
X500961Y291073D01*
X500985Y291028D01*
X501015Y291007D01*
X501038Y290979D01*
X501085Y290958D01*
X501127Y290929D01*
X501169Y290920D01*
X501197Y290908D01*
X501227Y290909D01*
X501269Y290901D01*
X501651Y290901D01*
X501651Y290519D01*
X501663Y290469D01*
X501664Y290418D01*
X501682Y290386D01*
X501690Y290350D01*
X501723Y290311D01*
X501747Y290266D01*
X501777Y290245D01*
X501801Y290217D01*
X501847Y290196D01*
X501889Y290166D01*
X501931Y290158D01*
X501959Y290146D01*
X501989Y290147D01*
X502031Y290139D01*
X519271Y290139D01*
X519271Y290107D01*
X519022Y288539D01*
X518532Y287030D01*
X517812Y285616D01*
X516879Y284333D01*
X515757Y283211D01*
X514474Y282278D01*
X513469Y281766D01*
X513461Y281759D01*
X513450Y281756D01*
X513395Y281704D01*
X513336Y281654D01*
X513332Y281645D01*
X513324Y281637D01*
X513298Y281566D01*
X513267Y281496D01*
X513268Y281485D01*
X513264Y281475D01*
X513272Y281399D01*
X513276Y281323D01*
X513281Y281313D01*
X513282Y281302D01*
X513323Y281238D01*
X513360Y281171D01*
X513369Y281165D01*
X513375Y281156D01*
X513496Y281076D01*
X518066Y279183D01*
X522473Y274776D01*
X524859Y269017D01*
X524859Y262783D01*
X522473Y257024D01*
X519118Y253669D01*
X519091Y253626D01*
X519056Y253588D01*
X519046Y253553D01*
X519026Y253522D01*
X519022Y253471D01*
X519007Y253422D01*
X519013Y253386D01*
X519010Y253349D01*
X519028Y253301D01*
X519037Y253251D01*
X519061Y253216D01*
X519071Y253187D01*
X519094Y253166D01*
X519118Y253131D01*
X522473Y249776D01*
X524859Y244017D01*
X524859Y237783D01*
X522473Y232024D01*
X519118Y228669D01*
X519110Y228656D01*
X519109Y228655D01*
X519107Y228652D01*
X519091Y228626D01*
X519056Y228588D01*
X519046Y228553D01*
X519026Y228522D01*
X519022Y228471D01*
X519007Y228422D01*
X519013Y228386D01*
X519010Y228349D01*
X519028Y228302D01*
X519037Y228251D01*
X519061Y228216D01*
X519071Y228187D01*
X519094Y228166D01*
X519118Y228131D01*
X520061Y227188D01*
X520125Y227148D01*
X520187Y227104D01*
X520200Y227102D01*
X520208Y227097D01*
X520245Y227093D01*
X520330Y227077D01*
X585763Y227077D01*
X585837Y227094D01*
G37*
%LPC*%
G36*
X682487Y12939D02*
X682487Y12939D01*
X676088Y14654D01*
X670351Y17966D01*
X665666Y22651D01*
X662354Y28388D01*
X662015Y29654D01*
X660690Y34597D01*
X660639Y34787D01*
X660639Y41413D01*
X662354Y47812D01*
X665666Y53549D01*
X670351Y58234D01*
X676088Y61546D01*
X682487Y63261D01*
X689113Y63261D01*
X695512Y61546D01*
X701249Y58234D01*
X705934Y53549D01*
X709246Y47812D01*
X709377Y47325D01*
X709377Y47324D01*
X710961Y41413D01*
X710961Y34787D01*
X709246Y28388D01*
X705934Y22651D01*
X701249Y17966D01*
X695512Y14654D01*
X689113Y12939D01*
X682487Y12939D01*
G37*
%LPD*%
%LPC*%
G36*
X34787Y12939D02*
X34787Y12939D01*
X28388Y14654D01*
X22651Y17966D01*
X17966Y22651D01*
X14654Y28388D01*
X14315Y29654D01*
X12990Y34597D01*
X12939Y34787D01*
X12939Y41413D01*
X14654Y47812D01*
X17966Y53549D01*
X22651Y58234D01*
X28388Y61546D01*
X34787Y63261D01*
X41413Y63261D01*
X47812Y61546D01*
X53549Y58234D01*
X58234Y53549D01*
X61546Y47812D01*
X61677Y47325D01*
X61677Y47324D01*
X63261Y41413D01*
X63261Y34787D01*
X61546Y28388D01*
X58234Y22651D01*
X53549Y17966D01*
X47812Y14654D01*
X41413Y12939D01*
X34787Y12939D01*
G37*
%LPD*%
%LPC*%
G36*
X494992Y711199D02*
X494992Y711199D01*
X492759Y713432D01*
X492759Y744329D01*
X492752Y744359D01*
X492755Y744389D01*
X492729Y744460D01*
X492720Y744498D01*
X492711Y744509D01*
X492705Y744525D01*
X492490Y744883D01*
X492748Y745914D01*
X492748Y745950D01*
X492759Y746006D01*
X492759Y747068D01*
X493055Y747364D01*
X493070Y747389D01*
X493093Y747409D01*
X493125Y747478D01*
X493146Y747511D01*
X493147Y747525D01*
X493155Y747540D01*
X493256Y747946D01*
X494167Y748492D01*
X494193Y748518D01*
X494240Y748549D01*
X494992Y749301D01*
X495409Y749301D01*
X495439Y749308D01*
X495469Y749305D01*
X495540Y749331D01*
X495578Y749340D01*
X495579Y749341D01*
X495580Y749341D01*
X495589Y749349D01*
X495605Y749355D01*
X495963Y749570D01*
X496994Y749312D01*
X497030Y749312D01*
X497086Y749301D01*
X498148Y749301D01*
X498444Y749005D01*
X498469Y748990D01*
X498489Y748967D01*
X498558Y748935D01*
X498591Y748914D01*
X498605Y748913D01*
X498620Y748905D01*
X499026Y748804D01*
X499572Y747893D01*
X499598Y747867D01*
X499629Y747820D01*
X500381Y747068D01*
X500381Y746651D01*
X500388Y746621D01*
X500385Y746591D01*
X500400Y746550D01*
X500401Y746539D01*
X500411Y746520D01*
X500420Y746482D01*
X500429Y746471D01*
X500435Y746455D01*
X506404Y736507D01*
X506443Y736466D01*
X506476Y736420D01*
X506503Y736405D01*
X506525Y736382D01*
X506578Y736363D01*
X506628Y736336D01*
X506659Y736335D01*
X506688Y736325D01*
X506744Y736331D01*
X506801Y736329D01*
X506829Y736341D01*
X506860Y736345D01*
X506907Y736376D01*
X506959Y736399D01*
X506983Y736425D01*
X507005Y736440D01*
X507022Y736469D01*
X507056Y736507D01*
X513025Y746455D01*
X513034Y746484D01*
X513052Y746509D01*
X513061Y746557D01*
X513066Y746568D01*
X513065Y746579D01*
X513066Y746583D01*
X513078Y746620D01*
X513076Y746634D01*
X513079Y746651D01*
X513079Y747068D01*
X513831Y747820D01*
X513850Y747851D01*
X513888Y747893D01*
X514434Y748804D01*
X514840Y748905D01*
X514866Y748919D01*
X514896Y748924D01*
X514959Y748967D01*
X514994Y748985D01*
X515002Y748996D01*
X515016Y749005D01*
X515312Y749301D01*
X516374Y749301D01*
X516410Y749309D01*
X516466Y749312D01*
X517497Y749570D01*
X517855Y749355D01*
X517884Y749346D01*
X517907Y749329D01*
X517909Y749328D01*
X517983Y749314D01*
X518020Y749302D01*
X518034Y749304D01*
X518051Y749301D01*
X518468Y749301D01*
X519220Y748549D01*
X519251Y748530D01*
X519293Y748492D01*
X520204Y747946D01*
X520305Y747540D01*
X520319Y747514D01*
X520324Y747484D01*
X520367Y747421D01*
X520385Y747386D01*
X520396Y747378D01*
X520405Y747364D01*
X520701Y747068D01*
X520701Y746006D01*
X520709Y745970D01*
X520712Y745914D01*
X520970Y744883D01*
X520755Y744525D01*
X520746Y744496D01*
X520728Y744471D01*
X520714Y744397D01*
X520702Y744360D01*
X520704Y744346D01*
X520701Y744329D01*
X520701Y713432D01*
X518468Y711199D01*
X515312Y711199D01*
X513079Y713432D01*
X513079Y730359D01*
X513063Y730429D01*
X513052Y730500D01*
X513043Y730513D01*
X513040Y730528D01*
X512994Y730583D01*
X512953Y730642D01*
X512940Y730650D01*
X512930Y730662D01*
X512864Y730691D01*
X512801Y730725D01*
X512786Y730726D01*
X512771Y730733D01*
X512700Y730730D01*
X512628Y730733D01*
X512614Y730727D01*
X512598Y730726D01*
X512535Y730692D01*
X512470Y730663D01*
X512458Y730650D01*
X512446Y730643D01*
X512424Y730611D01*
X512373Y730555D01*
X510319Y727131D01*
X510307Y727094D01*
X510276Y727027D01*
X510044Y726101D01*
X509589Y725828D01*
X509574Y725814D01*
X509555Y725805D01*
X509486Y725728D01*
X509465Y725707D01*
X509463Y725702D01*
X509459Y725698D01*
X509186Y725243D01*
X508259Y725011D01*
X508224Y724993D01*
X508156Y724968D01*
X507337Y724477D01*
X506822Y724606D01*
X506802Y724606D01*
X506782Y724613D01*
X506679Y724608D01*
X506649Y724608D01*
X506644Y724606D01*
X506638Y724606D01*
X506123Y724477D01*
X505304Y724968D01*
X505267Y724980D01*
X505201Y725011D01*
X504274Y725243D01*
X504001Y725698D01*
X503987Y725712D01*
X503979Y725731D01*
X503901Y725801D01*
X503881Y725822D01*
X503876Y725824D01*
X503871Y725828D01*
X503416Y726101D01*
X503184Y727027D01*
X503166Y727062D01*
X503141Y727131D01*
X501087Y730555D01*
X501037Y730606D01*
X500992Y730662D01*
X500977Y730668D01*
X500966Y730679D01*
X500899Y730703D01*
X500833Y730733D01*
X500818Y730732D01*
X500803Y730737D01*
X500732Y730729D01*
X500660Y730726D01*
X500647Y730718D01*
X500631Y730717D01*
X500571Y730677D01*
X500508Y730643D01*
X500499Y730630D01*
X500486Y730622D01*
X500449Y730560D01*
X500408Y730501D01*
X500405Y730485D01*
X500398Y730473D01*
X500395Y730434D01*
X500381Y730359D01*
X500381Y713432D01*
X498148Y711199D01*
X494992Y711199D01*
G37*
%LPD*%
%LPC*%
G36*
X421813Y701039D02*
X421813Y701039D01*
X417687Y703422D01*
X415304Y707548D01*
X415304Y736908D01*
X417537Y739141D01*
X429964Y739141D01*
X434090Y736758D01*
X436473Y732632D01*
X436473Y717708D01*
X434090Y713582D01*
X429964Y711199D01*
X423306Y711199D01*
X423257Y711188D01*
X423205Y711186D01*
X423173Y711168D01*
X423137Y711160D01*
X423098Y711127D01*
X423053Y711103D01*
X423032Y711073D01*
X423004Y711050D01*
X422983Y711003D01*
X422954Y710961D01*
X422945Y710919D01*
X422933Y710891D01*
X422934Y710861D01*
X422926Y710819D01*
X422926Y709930D01*
X422931Y709909D01*
X422929Y709880D01*
X422959Y709650D01*
X422960Y709649D01*
X422960Y709647D01*
X423007Y709510D01*
X423237Y709111D01*
X423256Y709092D01*
X423267Y709067D01*
X423330Y709013D01*
X423356Y708985D01*
X423366Y708981D01*
X423376Y708972D01*
X423775Y708742D01*
X423777Y708741D01*
X423778Y708740D01*
X423915Y708694D01*
X424146Y708664D01*
X424167Y708666D01*
X424195Y708661D01*
X432547Y708661D01*
X434779Y706428D01*
X434779Y703272D01*
X432547Y701039D01*
X421813Y701039D01*
G37*
%LPD*%
%LPC*%
G36*
X296794Y711199D02*
X296794Y711199D01*
X292667Y713582D01*
X290285Y717708D01*
X290285Y732632D01*
X292667Y736758D01*
X296794Y739141D01*
X303452Y739141D01*
X303501Y739152D01*
X303552Y739154D01*
X303584Y739172D01*
X303620Y739180D01*
X303660Y739213D01*
X303704Y739237D01*
X303726Y739267D01*
X303754Y739290D01*
X303775Y739337D01*
X303804Y739379D01*
X303812Y739421D01*
X303825Y739449D01*
X303824Y739479D01*
X303832Y739521D01*
X303832Y747068D01*
X306064Y749301D01*
X309221Y749301D01*
X311453Y747068D01*
X311453Y713432D01*
X309221Y711199D01*
X296794Y711199D01*
G37*
%LPD*%
%LPC*%
G36*
X319429Y711199D02*
X319429Y711199D01*
X317197Y713432D01*
X317197Y732632D01*
X319579Y736758D01*
X323705Y739141D01*
X334440Y739141D01*
X336672Y736908D01*
X336672Y733752D01*
X334440Y731519D01*
X326088Y731519D01*
X326066Y731514D01*
X326038Y731516D01*
X325808Y731486D01*
X325806Y731485D01*
X325805Y731485D01*
X325668Y731438D01*
X325573Y731384D01*
X325519Y731333D01*
X325461Y731285D01*
X325456Y731274D01*
X325447Y731265D01*
X325421Y731195D01*
X325390Y731127D01*
X325391Y731114D01*
X325386Y731103D01*
X325394Y731028D01*
X325397Y730954D01*
X325403Y730943D01*
X325404Y730930D01*
X325444Y730867D01*
X325479Y730801D01*
X325490Y730794D01*
X325496Y730784D01*
X325560Y730745D01*
X325621Y730702D01*
X325634Y730699D01*
X325644Y730693D01*
X325682Y730690D01*
X325763Y730674D01*
X331237Y730674D01*
X335756Y728065D01*
X338365Y723546D01*
X338365Y718328D01*
X335756Y713808D01*
X331237Y711199D01*
X319429Y711199D01*
G37*
%LPD*%
%LPC*%
G36*
X468851Y711199D02*
X468851Y711199D01*
X466618Y713432D01*
X466618Y716588D01*
X468851Y718821D01*
X478896Y718821D01*
X478917Y718826D01*
X478945Y718824D01*
X479176Y718854D01*
X479177Y718855D01*
X479179Y718855D01*
X479316Y718902D01*
X479715Y719132D01*
X479734Y719151D01*
X479759Y719162D01*
X479813Y719225D01*
X479841Y719251D01*
X479845Y719261D01*
X479854Y719271D01*
X480084Y719670D01*
X480084Y719671D01*
X480086Y719673D01*
X480132Y719810D01*
X480162Y720040D01*
X480160Y720062D01*
X480165Y720090D01*
X480165Y720979D01*
X480153Y721029D01*
X480152Y721080D01*
X480134Y721112D01*
X480126Y721148D01*
X480093Y721187D01*
X480069Y721232D01*
X480039Y721253D01*
X480015Y721281D01*
X479969Y721302D01*
X479927Y721332D01*
X479885Y721340D01*
X479857Y721352D01*
X479827Y721351D01*
X479785Y721359D01*
X468851Y721359D01*
X466618Y723592D01*
X466618Y726821D01*
X466618Y731393D01*
X469454Y736305D01*
X474367Y739141D01*
X480038Y739141D01*
X484951Y736305D01*
X487787Y731393D01*
X487787Y717708D01*
X485404Y713582D01*
X481278Y711199D01*
X468851Y711199D01*
G37*
%LPD*%
G36*
X171894Y462044D02*
X171894Y462044D01*
X171969Y462057D01*
X171979Y462064D01*
X171989Y462066D01*
X172018Y462090D01*
X172089Y462138D01*
X173032Y463081D01*
X173059Y463124D01*
X173094Y463162D01*
X173104Y463197D01*
X173124Y463228D01*
X173128Y463279D01*
X173143Y463328D01*
X173137Y463364D01*
X173140Y463401D01*
X173122Y463448D01*
X173113Y463499D01*
X173089Y463534D01*
X173079Y463563D01*
X173056Y463584D01*
X173032Y463619D01*
X169677Y466974D01*
X167291Y472733D01*
X167291Y478967D01*
X169677Y484726D01*
X173032Y488081D01*
X173059Y488124D01*
X173094Y488162D01*
X173104Y488197D01*
X173124Y488228D01*
X173128Y488279D01*
X173143Y488328D01*
X173137Y488364D01*
X173140Y488401D01*
X173122Y488448D01*
X173113Y488499D01*
X173089Y488534D01*
X173079Y488563D01*
X173056Y488584D01*
X173032Y488619D01*
X169677Y491974D01*
X167291Y497733D01*
X167291Y503967D01*
X169677Y509726D01*
X174084Y514133D01*
X178654Y516026D01*
X178663Y516032D01*
X178673Y516035D01*
X178733Y516083D01*
X178795Y516127D01*
X178800Y516137D01*
X178808Y516143D01*
X178840Y516213D01*
X178876Y516280D01*
X178877Y516291D01*
X178881Y516301D01*
X178879Y516377D01*
X178881Y516453D01*
X178877Y516463D01*
X178876Y516474D01*
X178841Y516541D01*
X178809Y516611D01*
X178800Y516618D01*
X178795Y516627D01*
X178681Y516716D01*
X177676Y517228D01*
X176393Y518161D01*
X175271Y519283D01*
X174338Y520566D01*
X173618Y521980D01*
X173128Y523489D01*
X172879Y525057D01*
X172879Y525089D01*
X190119Y525089D01*
X190169Y525100D01*
X190220Y525102D01*
X190252Y525120D01*
X190288Y525128D01*
X190327Y525161D01*
X190372Y525185D01*
X190393Y525215D01*
X190421Y525238D01*
X190442Y525285D01*
X190471Y525327D01*
X190480Y525369D01*
X190492Y525397D01*
X190491Y525427D01*
X190499Y525469D01*
X190499Y526231D01*
X190487Y526281D01*
X190486Y526332D01*
X190468Y526364D01*
X190460Y526400D01*
X190427Y526439D01*
X190403Y526484D01*
X190373Y526505D01*
X190349Y526533D01*
X190303Y526554D01*
X190261Y526584D01*
X190219Y526592D01*
X190191Y526604D01*
X190161Y526603D01*
X190119Y526611D01*
X172879Y526611D01*
X172879Y526643D01*
X173128Y528211D01*
X173618Y529720D01*
X174338Y531134D01*
X175271Y532417D01*
X176393Y533539D01*
X177351Y534235D01*
X177387Y534277D01*
X177430Y534312D01*
X177443Y534342D01*
X177464Y534366D01*
X177478Y534420D01*
X177501Y534471D01*
X177500Y534503D01*
X177508Y534534D01*
X177496Y534588D01*
X177494Y534644D01*
X177479Y534672D01*
X177472Y534704D01*
X177438Y534747D01*
X177412Y534796D01*
X177385Y534815D01*
X177365Y534840D01*
X177315Y534864D01*
X177270Y534896D01*
X177233Y534903D01*
X177209Y534915D01*
X177175Y534914D01*
X177128Y534923D01*
X176237Y534923D01*
X176163Y534906D01*
X176088Y534893D01*
X176078Y534886D01*
X176068Y534884D01*
X176040Y534860D01*
X175968Y534812D01*
X163688Y522532D01*
X163648Y522467D01*
X163604Y522405D01*
X163602Y522393D01*
X163597Y522385D01*
X163593Y522348D01*
X163577Y522263D01*
X163577Y468337D01*
X163589Y468283D01*
X163590Y468261D01*
X163596Y468250D01*
X163607Y468188D01*
X163614Y468178D01*
X163616Y468168D01*
X163640Y468140D01*
X163688Y468068D01*
X169618Y462138D01*
X169683Y462098D01*
X169745Y462054D01*
X169757Y462052D01*
X169765Y462047D01*
X169802Y462043D01*
X169887Y462027D01*
X171820Y462027D01*
X171894Y462044D01*
G37*
%LPC*%
G36*
X443133Y711199D02*
X443133Y711199D01*
X440901Y713432D01*
X440901Y732632D01*
X443283Y736758D01*
X447409Y739141D01*
X459837Y739141D01*
X462069Y736908D01*
X462069Y713432D01*
X459837Y711199D01*
X456680Y711199D01*
X454448Y713432D01*
X454448Y731139D01*
X454436Y731189D01*
X454434Y731240D01*
X454417Y731272D01*
X454408Y731308D01*
X454376Y731347D01*
X454351Y731392D01*
X454321Y731413D01*
X454298Y731441D01*
X454251Y731462D01*
X454210Y731492D01*
X454168Y731500D01*
X454140Y731512D01*
X454109Y731511D01*
X454067Y731519D01*
X449792Y731519D01*
X449770Y731514D01*
X449742Y731516D01*
X449512Y731486D01*
X449510Y731485D01*
X449508Y731485D01*
X449371Y731438D01*
X448973Y731208D01*
X448953Y731189D01*
X448929Y731178D01*
X448874Y731115D01*
X448847Y731089D01*
X448843Y731079D01*
X448834Y731069D01*
X448604Y730670D01*
X448603Y730669D01*
X448602Y730667D01*
X448575Y730587D01*
X448560Y730553D01*
X448560Y730542D01*
X448556Y730530D01*
X448526Y730300D01*
X448528Y730278D01*
X448522Y730250D01*
X448522Y713432D01*
X446290Y711199D01*
X443133Y711199D01*
G37*
%LPD*%
%LPC*%
G36*
X383602Y713572D02*
X383602Y713572D01*
X381465Y717728D01*
X381839Y722386D01*
X384612Y726147D01*
X385170Y726370D01*
X394063Y729928D01*
X395248Y730401D01*
X395267Y730415D01*
X395296Y730424D01*
X395343Y730452D01*
X395348Y730456D01*
X395354Y730458D01*
X395461Y730556D01*
X395526Y730644D01*
X395539Y730675D01*
X395560Y730700D01*
X395579Y730768D01*
X395594Y730804D01*
X395593Y730820D01*
X395599Y730840D01*
X395608Y730949D01*
X395603Y730981D01*
X395607Y731014D01*
X395588Y731081D01*
X395582Y731120D01*
X395572Y731133D01*
X395567Y731153D01*
X395517Y731250D01*
X395495Y731275D01*
X395482Y731305D01*
X395430Y731352D01*
X395404Y731382D01*
X395390Y731389D01*
X395374Y731402D01*
X395280Y731459D01*
X395274Y731461D01*
X395270Y731465D01*
X395132Y731510D01*
X395078Y731517D01*
X395047Y731514D01*
X395005Y731519D01*
X393472Y731419D01*
X393448Y731411D01*
X393415Y731410D01*
X390419Y730745D01*
X390397Y730734D01*
X390364Y730728D01*
X388932Y730169D01*
X388925Y730164D01*
X388915Y730162D01*
X387475Y729514D01*
X384523Y730633D01*
X383227Y733511D01*
X384346Y736463D01*
X385786Y737111D01*
X387940Y738081D01*
X392553Y739107D01*
X393180Y739116D01*
X394916Y739140D01*
X397252Y739174D01*
X401258Y736768D01*
X403395Y732612D01*
X403021Y727954D01*
X400248Y724193D01*
X398079Y723325D01*
X396467Y722680D01*
X389612Y719938D01*
X389593Y719925D01*
X389565Y719916D01*
X389517Y719888D01*
X389512Y719884D01*
X389506Y719882D01*
X389399Y719784D01*
X389334Y719696D01*
X389321Y719665D01*
X389300Y719640D01*
X389281Y719572D01*
X389266Y719536D01*
X389267Y719520D01*
X389261Y719500D01*
X389253Y719391D01*
X389258Y719359D01*
X389253Y719326D01*
X389273Y719259D01*
X389278Y719220D01*
X389288Y719207D01*
X389293Y719187D01*
X389344Y719090D01*
X389365Y719065D01*
X389378Y719035D01*
X389395Y719020D01*
X389401Y719009D01*
X389428Y718990D01*
X389431Y718987D01*
X389456Y718958D01*
X389471Y718951D01*
X389486Y718938D01*
X389580Y718881D01*
X389586Y718879D01*
X389590Y718875D01*
X389728Y718830D01*
X389782Y718823D01*
X389812Y718826D01*
X389851Y718821D01*
X391878Y718934D01*
X391898Y718940D01*
X391925Y718939D01*
X395916Y719665D01*
X395935Y719673D01*
X395961Y719676D01*
X397898Y720284D01*
X397904Y720288D01*
X397913Y720289D01*
X399398Y720823D01*
X402255Y719479D01*
X403324Y716508D01*
X401979Y713652D01*
X400494Y713118D01*
X397954Y712204D01*
X392643Y711238D01*
X391680Y711224D01*
X389944Y711200D01*
X387608Y711166D01*
X383602Y713572D01*
G37*
%LPD*%
%LPC*%
G36*
X342839Y711199D02*
X342839Y711199D01*
X340606Y713432D01*
X340606Y716588D01*
X342839Y718821D01*
X353773Y718821D01*
X353822Y718832D01*
X353873Y718834D01*
X353906Y718852D01*
X353941Y718860D01*
X353981Y718893D01*
X354026Y718917D01*
X354047Y718947D01*
X354075Y718970D01*
X354096Y719017D01*
X354125Y719059D01*
X354133Y719101D01*
X354146Y719129D01*
X354145Y719159D01*
X354153Y719201D01*
X354153Y747068D01*
X356385Y749301D01*
X359542Y749301D01*
X361774Y747068D01*
X361774Y713432D01*
X359542Y711199D01*
X342839Y711199D01*
G37*
%LPD*%
%LPC*%
G36*
X581761Y758861D02*
X581761Y758861D01*
X581761Y775641D01*
X596335Y775641D01*
X596981Y775468D01*
X597560Y775133D01*
X598033Y774660D01*
X598368Y774081D01*
X598541Y773435D01*
X598541Y758861D01*
X581761Y758861D01*
G37*
%LPD*%
%LPC*%
G36*
X181761Y758861D02*
X181761Y758861D01*
X181761Y775641D01*
X196335Y775641D01*
X196981Y775468D01*
X197560Y775133D01*
X198033Y774660D01*
X198368Y774081D01*
X198541Y773435D01*
X198541Y758861D01*
X181761Y758861D01*
G37*
%LPD*%
%LPC*%
G36*
X563459Y758861D02*
X563459Y758861D01*
X563459Y773435D01*
X563632Y774081D01*
X563967Y774660D01*
X564440Y775133D01*
X565019Y775468D01*
X565665Y775641D01*
X580239Y775641D01*
X580239Y758861D01*
X563459Y758861D01*
G37*
%LPD*%
%LPC*%
G36*
X163459Y758861D02*
X163459Y758861D01*
X163459Y773435D01*
X163632Y774081D01*
X163967Y774660D01*
X164440Y775133D01*
X165019Y775468D01*
X165665Y775641D01*
X180239Y775641D01*
X180239Y758861D01*
X163459Y758861D01*
G37*
%LPD*%
%LPC*%
G36*
X581761Y740559D02*
X581761Y740559D01*
X581761Y757339D01*
X598541Y757339D01*
X598541Y742765D01*
X598368Y742119D01*
X598033Y741540D01*
X597560Y741067D01*
X596981Y740732D01*
X596335Y740559D01*
X581761Y740559D01*
G37*
%LPD*%
%LPC*%
G36*
X181761Y740559D02*
X181761Y740559D01*
X181761Y757339D01*
X198541Y757339D01*
X198541Y742765D01*
X198368Y742119D01*
X198033Y741540D01*
X197560Y741067D01*
X196981Y740732D01*
X196335Y740559D01*
X181761Y740559D01*
G37*
%LPD*%
%LPC*%
G36*
X165665Y740559D02*
X165665Y740559D01*
X165019Y740732D01*
X164440Y741067D01*
X163967Y741540D01*
X163632Y742119D01*
X163459Y742765D01*
X163459Y757339D01*
X180239Y757339D01*
X180239Y740559D01*
X165665Y740559D01*
G37*
%LPD*%
%LPC*%
G36*
X565665Y740559D02*
X565665Y740559D01*
X565019Y740732D01*
X564440Y741067D01*
X563967Y741540D01*
X563632Y742119D01*
X563459Y742765D01*
X563459Y757339D01*
X580239Y757339D01*
X580239Y740559D01*
X565665Y740559D01*
G37*
%LPD*%
%LPC*%
G36*
X521461Y838961D02*
X521461Y838961D01*
X521461Y850901D01*
X531195Y850901D01*
X531841Y850728D01*
X532420Y850393D01*
X532893Y849920D01*
X533228Y849341D01*
X533401Y848695D01*
X533401Y838961D01*
X521461Y838961D01*
G37*
%LPD*%
%LPC*%
G36*
X191261Y838961D02*
X191261Y838961D01*
X191261Y850901D01*
X200995Y850901D01*
X201641Y850728D01*
X202220Y850393D01*
X202693Y849920D01*
X203028Y849341D01*
X203201Y848695D01*
X203201Y838961D01*
X191261Y838961D01*
G37*
%LPD*%
%LPC*%
G36*
X507999Y838961D02*
X507999Y838961D01*
X507999Y848695D01*
X508172Y849341D01*
X508507Y849920D01*
X508980Y850393D01*
X509559Y850728D01*
X510205Y850901D01*
X519939Y850901D01*
X519939Y838961D01*
X507999Y838961D01*
G37*
%LPD*%
%LPC*%
G36*
X177799Y838961D02*
X177799Y838961D01*
X177799Y848695D01*
X177972Y849341D01*
X178307Y849920D01*
X178780Y850393D01*
X179359Y850728D01*
X180005Y850901D01*
X189739Y850901D01*
X189739Y838961D01*
X177799Y838961D01*
G37*
%LPD*%
%LPC*%
G36*
X191261Y825499D02*
X191261Y825499D01*
X191261Y837439D01*
X203201Y837439D01*
X203201Y827705D01*
X203028Y827059D01*
X202693Y826480D01*
X202220Y826007D01*
X201641Y825672D01*
X200995Y825499D01*
X191261Y825499D01*
G37*
%LPD*%
%LPC*%
G36*
X521461Y825499D02*
X521461Y825499D01*
X521461Y837439D01*
X533401Y837439D01*
X533401Y827705D01*
X533228Y827059D01*
X532893Y826480D01*
X532420Y826007D01*
X531841Y825672D01*
X531195Y825499D01*
X521461Y825499D01*
G37*
%LPD*%
%LPC*%
G36*
X510205Y825499D02*
X510205Y825499D01*
X509559Y825672D01*
X508980Y826007D01*
X508507Y826480D01*
X508172Y827059D01*
X507999Y827705D01*
X507999Y837439D01*
X519939Y837439D01*
X519939Y825499D01*
X510205Y825499D01*
G37*
%LPD*%
%LPC*%
G36*
X180005Y825499D02*
X180005Y825499D01*
X179359Y825672D01*
X178780Y826007D01*
X178307Y826480D01*
X177972Y827059D01*
X177799Y827705D01*
X177799Y837439D01*
X189739Y837439D01*
X189739Y825499D01*
X180005Y825499D01*
G37*
%LPD*%
%LPC*%
G36*
X502411Y291661D02*
X502411Y291661D01*
X502411Y300981D01*
X509983Y300981D01*
X511551Y300732D01*
X513060Y300242D01*
X514474Y299522D01*
X515757Y298589D01*
X516879Y297467D01*
X517812Y296184D01*
X518532Y294770D01*
X519022Y293261D01*
X519271Y291693D01*
X519271Y291661D01*
X502411Y291661D01*
G37*
%LPD*%
%LPC*%
G36*
X597661Y476611D02*
X597661Y476611D01*
X597661Y485931D01*
X605233Y485931D01*
X606801Y485682D01*
X608310Y485192D01*
X609724Y484472D01*
X611007Y483539D01*
X612129Y482417D01*
X613062Y481134D01*
X613782Y479720D01*
X614272Y478211D01*
X614521Y476643D01*
X614521Y476611D01*
X597661Y476611D01*
G37*
%LPD*%
%LPC*%
G36*
X579279Y476611D02*
X579279Y476611D01*
X579279Y476643D01*
X579528Y478211D01*
X580018Y479720D01*
X580738Y481134D01*
X581671Y482417D01*
X582793Y483539D01*
X584076Y484472D01*
X585490Y485192D01*
X586999Y485682D01*
X588567Y485931D01*
X596139Y485931D01*
X596139Y476611D01*
X579279Y476611D01*
G37*
%LPD*%
%LPC*%
G36*
X616711Y190537D02*
X616711Y190537D01*
X616711Y203239D01*
X629413Y203239D01*
X629413Y202940D01*
X629081Y200847D01*
X628426Y198832D01*
X627464Y196944D01*
X626219Y195230D01*
X624720Y193731D01*
X623006Y192486D01*
X621118Y191524D01*
X619103Y190869D01*
X617010Y190537D01*
X616711Y190537D01*
G37*
%LPD*%
%LPC*%
G36*
X614890Y190537D02*
X614890Y190537D01*
X612797Y190869D01*
X610782Y191524D01*
X608894Y192486D01*
X607180Y193731D01*
X605681Y195230D01*
X604436Y196944D01*
X603474Y198832D01*
X602819Y200847D01*
X602487Y202940D01*
X602487Y203239D01*
X615189Y203239D01*
X615189Y190537D01*
X614890Y190537D01*
G37*
%LPD*%
%LPC*%
G36*
X407044Y741679D02*
X407044Y741679D01*
X404812Y743912D01*
X404812Y753842D01*
X407044Y756074D01*
X410201Y756074D01*
X412433Y753842D01*
X412433Y743912D01*
X410201Y741679D01*
X407044Y741679D01*
G37*
%LPD*%
%LPC*%
G36*
X70611Y375411D02*
X70611Y375411D01*
X70611Y375590D01*
X70905Y377446D01*
X71486Y379233D01*
X72339Y380907D01*
X73444Y382428D01*
X74772Y383756D01*
X76293Y384861D01*
X77967Y385714D01*
X79754Y386295D01*
X81610Y386589D01*
X81789Y386589D01*
X81789Y375411D01*
X70611Y375411D01*
G37*
%LPD*%
%LPC*%
G36*
X70611Y324611D02*
X70611Y324611D01*
X70611Y324790D01*
X70905Y326646D01*
X71486Y328433D01*
X72339Y330107D01*
X73444Y331628D01*
X74772Y332956D01*
X76293Y334061D01*
X77967Y334914D01*
X79754Y335495D01*
X81610Y335789D01*
X81789Y335789D01*
X81789Y324611D01*
X70611Y324611D01*
G37*
%LPD*%
%LPC*%
G36*
X70611Y273811D02*
X70611Y273811D01*
X70611Y273990D01*
X70905Y275846D01*
X71486Y277633D01*
X72339Y279307D01*
X73444Y280828D01*
X74772Y282156D01*
X76293Y283261D01*
X77967Y284114D01*
X79754Y284695D01*
X81610Y284989D01*
X81789Y284989D01*
X81789Y273811D01*
X70611Y273811D01*
G37*
%LPD*%
%LPC*%
G36*
X70611Y121411D02*
X70611Y121411D01*
X70611Y121590D01*
X70905Y123446D01*
X71486Y125233D01*
X72339Y126907D01*
X73444Y128428D01*
X74772Y129756D01*
X76293Y130861D01*
X77967Y131714D01*
X79754Y132295D01*
X81610Y132589D01*
X81789Y132589D01*
X81789Y121411D01*
X70611Y121411D01*
G37*
%LPD*%
%LPC*%
G36*
X70611Y223011D02*
X70611Y223011D01*
X70611Y223190D01*
X70905Y225046D01*
X71486Y226833D01*
X72339Y228507D01*
X73444Y230028D01*
X74772Y231356D01*
X76293Y232461D01*
X77967Y233314D01*
X79754Y233895D01*
X81610Y234189D01*
X81789Y234189D01*
X81789Y223011D01*
X70611Y223011D01*
G37*
%LPD*%
%LPC*%
G36*
X70611Y172211D02*
X70611Y172211D01*
X70611Y172390D01*
X70905Y174246D01*
X71486Y176033D01*
X72339Y177707D01*
X73444Y179228D01*
X74772Y180556D01*
X76293Y181661D01*
X77967Y182514D01*
X79754Y183095D01*
X81610Y183389D01*
X81789Y183389D01*
X81789Y172211D01*
X70611Y172211D01*
G37*
%LPD*%
%LPC*%
G36*
X70611Y70611D02*
X70611Y70611D01*
X70611Y70790D01*
X70905Y72646D01*
X71486Y74433D01*
X72339Y76107D01*
X73444Y77628D01*
X74772Y78956D01*
X76293Y80061D01*
X77967Y80914D01*
X79754Y81495D01*
X81610Y81789D01*
X81789Y81789D01*
X81789Y70611D01*
X70611Y70611D01*
G37*
%LPD*%
%LPC*%
G36*
X81610Y362711D02*
X81610Y362711D01*
X79754Y363005D01*
X77967Y363586D01*
X76293Y364439D01*
X74772Y365544D01*
X73444Y366872D01*
X72339Y368393D01*
X71486Y370067D01*
X70905Y371854D01*
X70611Y373710D01*
X70611Y373889D01*
X81789Y373889D01*
X81789Y362711D01*
X81610Y362711D01*
G37*
%LPD*%
%LPC*%
G36*
X81610Y311911D02*
X81610Y311911D01*
X79754Y312205D01*
X77967Y312786D01*
X76293Y313639D01*
X74772Y314744D01*
X73444Y316072D01*
X72339Y317593D01*
X71486Y319267D01*
X70905Y321054D01*
X70611Y322910D01*
X70611Y323089D01*
X81789Y323089D01*
X81789Y311911D01*
X81610Y311911D01*
G37*
%LPD*%
%LPC*%
G36*
X81610Y210311D02*
X81610Y210311D01*
X79754Y210605D01*
X77967Y211186D01*
X76293Y212039D01*
X74772Y213144D01*
X73444Y214472D01*
X72339Y215993D01*
X71486Y217667D01*
X70905Y219454D01*
X70611Y221310D01*
X70611Y221489D01*
X81789Y221489D01*
X81789Y210311D01*
X81610Y210311D01*
G37*
%LPD*%
%LPC*%
G36*
X81610Y159511D02*
X81610Y159511D01*
X79754Y159805D01*
X77967Y160386D01*
X76293Y161239D01*
X74772Y162344D01*
X73444Y163672D01*
X72339Y165193D01*
X71486Y166867D01*
X70905Y168654D01*
X70611Y170510D01*
X70611Y170689D01*
X81789Y170689D01*
X81789Y159511D01*
X81610Y159511D01*
G37*
%LPD*%
%LPC*%
G36*
X81610Y261111D02*
X81610Y261111D01*
X79754Y261405D01*
X77967Y261986D01*
X76293Y262839D01*
X74772Y263944D01*
X73444Y265272D01*
X72339Y266793D01*
X71486Y268467D01*
X70905Y270254D01*
X70611Y272110D01*
X70611Y272289D01*
X81789Y272289D01*
X81789Y261111D01*
X81610Y261111D01*
G37*
%LPD*%
%LPC*%
G36*
X81610Y108711D02*
X81610Y108711D01*
X79754Y109005D01*
X77967Y109586D01*
X76293Y110439D01*
X74772Y111544D01*
X73444Y112872D01*
X72339Y114393D01*
X71486Y116067D01*
X70905Y117854D01*
X70611Y119710D01*
X70611Y119889D01*
X81789Y119889D01*
X81789Y108711D01*
X81610Y108711D01*
G37*
%LPD*%
%LPC*%
G36*
X81610Y57911D02*
X81610Y57911D01*
X79754Y58205D01*
X77967Y58786D01*
X76293Y59639D01*
X74772Y60744D01*
X73444Y62072D01*
X72339Y63593D01*
X71486Y65267D01*
X70905Y67054D01*
X70611Y68910D01*
X70611Y69089D01*
X81789Y69089D01*
X81789Y57911D01*
X81610Y57911D01*
G37*
%LPD*%
G36*
X303501Y718832D02*
X303501Y718832D01*
X303552Y718834D01*
X303584Y718852D01*
X303620Y718860D01*
X303660Y718893D01*
X303704Y718917D01*
X303726Y718947D01*
X303754Y718970D01*
X303775Y719017D01*
X303804Y719059D01*
X303812Y719101D01*
X303825Y719129D01*
X303824Y719159D01*
X303832Y719201D01*
X303832Y731139D01*
X303820Y731189D01*
X303818Y731240D01*
X303801Y731272D01*
X303792Y731308D01*
X303760Y731347D01*
X303735Y731392D01*
X303705Y731413D01*
X303682Y731441D01*
X303635Y731462D01*
X303594Y731492D01*
X303552Y731500D01*
X303524Y731512D01*
X303493Y731511D01*
X303452Y731519D01*
X299176Y731519D01*
X299155Y731514D01*
X299126Y731516D01*
X298896Y731486D01*
X298894Y731485D01*
X298893Y731485D01*
X298756Y731438D01*
X298357Y731208D01*
X298337Y731189D01*
X298313Y731178D01*
X298258Y731115D01*
X298231Y731089D01*
X298227Y731079D01*
X298218Y731069D01*
X297988Y730670D01*
X297987Y730669D01*
X297986Y730667D01*
X297940Y730530D01*
X297910Y730300D01*
X297912Y730278D01*
X297907Y730250D01*
X297907Y720090D01*
X297912Y720069D01*
X297910Y720040D01*
X297940Y719810D01*
X297941Y719809D01*
X297941Y719807D01*
X297988Y719670D01*
X298218Y719271D01*
X298236Y719252D01*
X298248Y719227D01*
X298311Y719173D01*
X298336Y719145D01*
X298347Y719141D01*
X298357Y719132D01*
X298756Y718902D01*
X298757Y718901D01*
X298759Y718900D01*
X298896Y718854D01*
X299126Y718824D01*
X299148Y718826D01*
X299176Y718821D01*
X303452Y718821D01*
X303501Y718832D01*
G37*
G36*
X427603Y718826D02*
X427603Y718826D01*
X427631Y718824D01*
X427862Y718854D01*
X427863Y718855D01*
X427865Y718855D01*
X428002Y718902D01*
X428401Y719132D01*
X428420Y719151D01*
X428445Y719162D01*
X428499Y719225D01*
X428527Y719251D01*
X428531Y719261D01*
X428540Y719271D01*
X428770Y719670D01*
X428770Y719671D01*
X428772Y719673D01*
X428818Y719810D01*
X428848Y720040D01*
X428846Y720062D01*
X428851Y720090D01*
X428851Y730250D01*
X428846Y730271D01*
X428848Y730300D01*
X428818Y730530D01*
X428817Y730531D01*
X428817Y730533D01*
X428770Y730670D01*
X428540Y731069D01*
X428521Y731088D01*
X428510Y731113D01*
X428447Y731167D01*
X428421Y731195D01*
X428411Y731199D01*
X428401Y731208D01*
X428002Y731438D01*
X428000Y731439D01*
X427999Y731440D01*
X427862Y731486D01*
X427631Y731516D01*
X427610Y731514D01*
X427582Y731519D01*
X423306Y731519D01*
X423257Y731508D01*
X423205Y731506D01*
X423173Y731488D01*
X423137Y731480D01*
X423098Y731447D01*
X423053Y731423D01*
X423032Y731393D01*
X423004Y731370D01*
X422983Y731323D01*
X422954Y731281D01*
X422945Y731239D01*
X422933Y731211D01*
X422934Y731181D01*
X422926Y731139D01*
X422926Y719201D01*
X422938Y719151D01*
X422939Y719100D01*
X422957Y719068D01*
X422965Y719032D01*
X422998Y718993D01*
X423022Y718948D01*
X423052Y718927D01*
X423076Y718899D01*
X423122Y718878D01*
X423164Y718848D01*
X423206Y718840D01*
X423234Y718828D01*
X423264Y718829D01*
X423306Y718821D01*
X427582Y718821D01*
X427603Y718826D01*
G37*
%LPC*%
G36*
X502411Y53309D02*
X502411Y53309D01*
X502411Y60589D01*
X509191Y60589D01*
X509191Y55515D01*
X509018Y54869D01*
X508683Y54290D01*
X508210Y53817D01*
X507631Y53482D01*
X506985Y53309D01*
X502411Y53309D01*
G37*
%LPD*%
%LPC*%
G36*
X496315Y53309D02*
X496315Y53309D01*
X495669Y53482D01*
X495090Y53817D01*
X494617Y54290D01*
X494282Y54869D01*
X494109Y55515D01*
X494109Y60589D01*
X500889Y60589D01*
X500889Y53309D01*
X496315Y53309D01*
G37*
%LPD*%
G36*
X328649Y718826D02*
X328649Y718826D01*
X328677Y718824D01*
X329127Y718883D01*
X329128Y718884D01*
X329130Y718884D01*
X329219Y718914D01*
X329249Y718921D01*
X329256Y718927D01*
X329267Y718931D01*
X330045Y719380D01*
X330065Y719399D01*
X330089Y719410D01*
X330144Y719473D01*
X330172Y719499D01*
X330175Y719509D01*
X330184Y719519D01*
X330634Y720297D01*
X330641Y720323D01*
X330657Y720345D01*
X330673Y720427D01*
X330684Y720463D01*
X330682Y720474D01*
X330685Y720487D01*
X330685Y721386D01*
X330678Y721412D01*
X330681Y721439D01*
X330654Y721518D01*
X330645Y721555D01*
X330638Y721563D01*
X330634Y721576D01*
X330184Y722354D01*
X330166Y722374D01*
X330155Y722398D01*
X330092Y722453D01*
X330066Y722480D01*
X330055Y722484D01*
X330045Y722493D01*
X329267Y722942D01*
X329265Y722943D01*
X329264Y722944D01*
X329127Y722990D01*
X328677Y723049D01*
X328656Y723047D01*
X328628Y723053D01*
X325199Y723053D01*
X325149Y723041D01*
X325098Y723039D01*
X325066Y723021D01*
X325030Y723013D01*
X324991Y722981D01*
X324946Y722956D01*
X324925Y722926D01*
X324896Y722903D01*
X324875Y722856D01*
X324846Y722815D01*
X324838Y722773D01*
X324825Y722745D01*
X324827Y722714D01*
X324818Y722672D01*
X324818Y719201D01*
X324830Y719151D01*
X324832Y719100D01*
X324850Y719068D01*
X324858Y719032D01*
X324890Y718993D01*
X324915Y718948D01*
X324945Y718927D01*
X324968Y718899D01*
X325015Y718878D01*
X325056Y718848D01*
X325098Y718840D01*
X325126Y718828D01*
X325157Y718829D01*
X325199Y718821D01*
X328628Y718821D01*
X328649Y718826D01*
G37*
G36*
X479680Y728995D02*
X479680Y728995D01*
X479742Y729001D01*
X479763Y729015D01*
X479787Y729020D01*
X479836Y729060D01*
X479889Y729094D01*
X479902Y729115D01*
X479921Y729130D01*
X479947Y729188D01*
X479979Y729242D01*
X479982Y729266D01*
X479992Y729289D01*
X479989Y729351D01*
X479995Y729414D01*
X479986Y729440D01*
X479985Y729462D01*
X479967Y729495D01*
X479948Y729551D01*
X479358Y730573D01*
X479339Y730592D01*
X479328Y730617D01*
X479265Y730672D01*
X479239Y730699D01*
X479229Y730703D01*
X479219Y730712D01*
X478061Y731380D01*
X478036Y731388D01*
X478015Y731402D01*
X478013Y731404D01*
X477931Y731419D01*
X477895Y731430D01*
X477884Y731429D01*
X477871Y731431D01*
X476534Y731431D01*
X476508Y731425D01*
X476481Y731428D01*
X476402Y731400D01*
X476365Y731392D01*
X476364Y731391D01*
X476363Y731391D01*
X476356Y731384D01*
X476344Y731380D01*
X475186Y730712D01*
X475167Y730694D01*
X475142Y730682D01*
X475088Y730619D01*
X475060Y730593D01*
X475056Y730583D01*
X475047Y730573D01*
X474457Y729551D01*
X474439Y729491D01*
X474413Y729433D01*
X474414Y729409D01*
X474407Y729385D01*
X474418Y729323D01*
X474420Y729260D01*
X474432Y729239D01*
X474436Y729214D01*
X474473Y729163D01*
X474503Y729108D01*
X474523Y729094D01*
X474537Y729074D01*
X474593Y729045D01*
X474644Y729008D01*
X474672Y729003D01*
X474690Y728993D01*
X474728Y728992D01*
X474787Y728981D01*
X479618Y728981D01*
X479680Y728995D01*
G37*
%LPC*%
G36*
X180999Y758099D02*
X180999Y758099D01*
X180999Y758101D01*
X181001Y758101D01*
X181001Y758099D01*
X180999Y758099D01*
G37*
%LPD*%
%LPC*%
G36*
X580999Y758099D02*
X580999Y758099D01*
X580999Y758101D01*
X581001Y758101D01*
X581001Y758099D01*
X580999Y758099D01*
G37*
%LPD*%
%LPC*%
G36*
X190499Y838199D02*
X190499Y838199D01*
X190499Y838201D01*
X190501Y838201D01*
X190501Y838199D01*
X190499Y838199D01*
G37*
%LPD*%
%LPC*%
G36*
X520699Y838199D02*
X520699Y838199D01*
X520699Y838201D01*
X520701Y838201D01*
X520701Y838199D01*
X520699Y838199D01*
G37*
%LPD*%
D10*
X280590Y323850D02*
X265510Y323850D01*
X417910Y323850D02*
X432990Y323850D01*
X432990Y298450D02*
X417910Y298450D01*
X417910Y273050D02*
X432990Y273050D01*
X432990Y247650D02*
X417910Y247650D01*
X417910Y222250D02*
X432990Y222250D01*
X432990Y196850D02*
X417910Y196850D01*
X417910Y171450D02*
X432990Y171450D01*
X432990Y146050D02*
X417910Y146050D01*
X280590Y146050D02*
X265510Y146050D01*
X265510Y171450D02*
X280590Y171450D01*
X280590Y196850D02*
X265510Y196850D01*
X265510Y222250D02*
X280590Y222250D01*
X280590Y247650D02*
X265510Y247650D01*
X265510Y273050D02*
X280590Y273050D01*
X280590Y298450D02*
X265510Y298450D01*
X265510Y349250D02*
X280590Y349250D01*
X280590Y374650D02*
X265510Y374650D01*
X265510Y400050D02*
X280590Y400050D01*
X280590Y425450D02*
X265510Y425450D01*
X265510Y450850D02*
X280590Y450850D01*
X280590Y476250D02*
X265510Y476250D01*
X265510Y501650D02*
X280590Y501650D01*
X417910Y501650D02*
X432990Y501650D01*
X432990Y476250D02*
X417910Y476250D01*
X417910Y450850D02*
X432990Y450850D01*
X432990Y425450D02*
X417910Y425450D01*
X417910Y400050D02*
X432990Y400050D01*
X432990Y374650D02*
X417910Y374650D01*
X417910Y349250D02*
X432990Y349250D01*
D11*
X476250Y501650D03*
X501650Y501650D03*
D10*
X509190Y215900D02*
X494110Y215900D01*
X494110Y240900D02*
X509190Y240900D01*
X509190Y265900D02*
X494110Y265900D01*
X494110Y290900D02*
X509190Y290900D01*
X198040Y450850D02*
X182960Y450850D01*
X182960Y475850D02*
X198040Y475850D01*
X198040Y500850D02*
X182960Y500850D01*
X182960Y525850D02*
X198040Y525850D01*
D12*
X520700Y838200D03*
D13*
X570700Y838200D03*
D11*
X133350Y374650D03*
X107950Y374650D03*
X82550Y374650D03*
D14*
X581000Y588100D03*
X581000Y758100D03*
X181000Y588100D03*
X181000Y758100D03*
D11*
X171450Y374650D03*
X196850Y374650D03*
D15*
X243450Y349250D03*
X226450Y349250D03*
X243450Y374650D03*
X226450Y374650D03*
D11*
X133350Y323850D03*
X107950Y323850D03*
X82550Y323850D03*
X171450Y323850D03*
X196850Y323850D03*
D15*
X243450Y298450D03*
X226450Y298450D03*
X243450Y323850D03*
X226450Y323850D03*
D11*
X133350Y273050D03*
X107950Y273050D03*
X82550Y273050D03*
X171450Y273050D03*
X196850Y273050D03*
D15*
X243450Y247650D03*
X226450Y247650D03*
X243450Y273050D03*
X226450Y273050D03*
D11*
X133350Y120650D03*
X107950Y120650D03*
X82550Y120650D03*
X171450Y120650D03*
X196850Y120650D03*
D15*
X243450Y95250D03*
X226450Y95250D03*
X243450Y120650D03*
X226450Y120650D03*
D11*
X133350Y222250D03*
X107950Y222250D03*
X82550Y222250D03*
X171450Y222250D03*
X196850Y222250D03*
D15*
X243450Y196850D03*
X226450Y196850D03*
X243450Y222250D03*
X226450Y222250D03*
D11*
X133350Y171450D03*
X107950Y171450D03*
X82550Y171450D03*
X171450Y171450D03*
X196850Y171450D03*
D15*
X243450Y146050D03*
X226450Y146050D03*
X243450Y171450D03*
X226450Y171450D03*
D11*
X133350Y69850D03*
X107950Y69850D03*
X82550Y69850D03*
X171450Y69850D03*
X196850Y69850D03*
D15*
X243450Y44450D03*
X226450Y44450D03*
X243450Y69850D03*
X226450Y69850D03*
D16*
X615950Y204000D03*
X615950Y254000D03*
X615950Y304000D03*
D15*
X465700Y400050D03*
X448700Y400050D03*
D11*
X642112Y91694D03*
X577088Y91694D03*
X642112Y136906D03*
X577088Y136906D03*
D17*
X501650Y61350D03*
X501650Y78350D03*
X450850Y135500D03*
X450850Y118500D03*
D12*
X190500Y838200D03*
D13*
X240500Y838200D03*
D11*
X501650Y539750D03*
X476250Y539750D03*
D10*
X589360Y450850D02*
X604440Y450850D01*
X604440Y475850D02*
X589360Y475850D01*
X540940Y127000D02*
X525860Y127000D01*
X525860Y102000D02*
X540940Y102000D01*
D18*
X476250Y501650D02*
X425450Y501650D01*
D19*
X570700Y838200D02*
X596900Y838200D01*
X628650Y806450D01*
X628650Y635750D02*
X581000Y588100D01*
X628650Y635750D02*
X628650Y806450D01*
D18*
X552450Y501650D02*
X501650Y501650D01*
X581000Y530200D02*
X581000Y588100D01*
X581000Y530200D02*
X552450Y501650D01*
D20*
X577088Y136906D02*
X642112Y136906D01*
X642112Y277838D02*
X615950Y304000D01*
X642112Y277838D02*
X642112Y242062D01*
X628650Y228600D01*
X603250Y228600D01*
X590550Y215900D01*
X615950Y304000D02*
X494500Y425450D01*
X431800Y425450D02*
X425450Y425450D01*
X431800Y425450D02*
X494500Y425450D01*
X533400Y127000D02*
X567182Y127000D01*
X577088Y136906D01*
X577850Y215900D02*
X501650Y215900D01*
X577850Y215900D02*
X590550Y215900D01*
X577088Y215138D02*
X577088Y136906D01*
X577088Y215138D02*
X577850Y215900D01*
X190500Y450850D02*
X165100Y450850D01*
X152400Y463550D01*
X152400Y527050D01*
X171450Y546100D01*
D18*
X412750Y539750D02*
X476250Y539750D01*
X412750Y539750D02*
X381000Y508000D01*
D20*
X412750Y539750D02*
X406400Y546100D01*
X171450Y546100D01*
D18*
X381000Y444500D02*
X400050Y425450D01*
X431800Y425450D01*
X381000Y444500D02*
X381000Y508000D01*
D19*
X82550Y222250D02*
X82550Y171450D01*
X82550Y222250D02*
X82550Y273050D01*
X82550Y323850D01*
X82550Y374650D01*
X82550Y171450D02*
X82550Y120650D01*
X82550Y69850D01*
D20*
X425850Y475850D02*
X596900Y475850D01*
X425850Y475850D02*
X425450Y476250D01*
X501650Y61350D02*
X512200Y57150D01*
X654050Y57150D02*
X673100Y76200D01*
X654050Y57150D02*
X512200Y57150D01*
X596900Y475850D02*
X654450Y475850D01*
X657225Y473075D01*
X673100Y457200D01*
X673100Y203200D01*
X673100Y76200D01*
X672300Y204000D02*
X615950Y204000D01*
X672300Y204000D02*
X673100Y203200D01*
X286950Y525850D02*
X190500Y525850D01*
X286950Y525850D02*
X304800Y508000D01*
X304800Y425450D01*
X304800Y412750D01*
X285750Y425450D02*
X273050Y425450D01*
X501650Y311150D02*
X501650Y290900D01*
X501650Y311150D02*
X450850Y361950D01*
X355600Y361950D02*
X304800Y412750D01*
X355600Y361950D02*
X450850Y361950D01*
X304800Y425450D02*
X273050Y425450D01*
D19*
X82550Y374650D02*
X82550Y659650D01*
X181000Y758100D01*
X520700Y818400D02*
X581000Y758100D01*
X520700Y818400D02*
X520700Y838200D01*
X190500Y838200D02*
X190500Y767600D01*
X181000Y758100D01*
D18*
X520700Y838200D02*
X520700Y850900D01*
X539750Y869950D01*
X609600Y869950D01*
X660400Y819150D01*
X660400Y476250D01*
X657225Y473075D01*
D20*
X450850Y323850D02*
X425450Y323850D01*
X450850Y323850D02*
X463550Y311150D01*
X483000Y240900D02*
X501650Y240900D01*
X483000Y240900D02*
X463550Y260350D01*
X463550Y311150D01*
X436957Y348519D02*
X426181Y348519D01*
X425450Y349250D01*
X444500Y349250D01*
X477520Y316230D01*
X500850Y266700D02*
X501650Y265900D01*
X500850Y266700D02*
X488950Y266700D01*
X477520Y278130D01*
X477520Y316230D01*
X272650Y475850D02*
X190500Y475850D01*
X272650Y475850D02*
X273050Y476250D01*
X272250Y500850D02*
X190500Y500850D01*
X272250Y500850D02*
X273050Y501650D01*
X273050Y400050D02*
X361950Y311150D01*
X444500Y311150D01*
X450850Y304800D01*
X450850Y135500D01*
X448700Y400050D02*
X425450Y400050D01*
X273050Y374650D02*
X243450Y374650D01*
X243450Y349250D02*
X273050Y349250D01*
X273050Y323850D02*
X243450Y323850D01*
X243450Y298450D02*
X273050Y298450D01*
X273050Y273050D02*
X243450Y273050D01*
X243450Y247650D02*
X273050Y247650D01*
X273050Y222250D02*
X243450Y222250D01*
X243450Y196850D02*
X273050Y196850D01*
X273050Y171450D02*
X243450Y171450D01*
X243450Y146050D02*
X273050Y146050D01*
X285750Y69850D02*
X243450Y69850D01*
X400050Y247650D02*
X425450Y247650D01*
X400050Y247650D02*
X285750Y69850D01*
X285750Y44450D02*
X243450Y44450D01*
X400050Y222250D02*
X425450Y222250D01*
X400050Y222250D02*
X285750Y44450D01*
X285750Y120650D02*
X243450Y120650D01*
X285750Y120650D02*
X400050Y298450D01*
X425450Y298450D01*
X425450Y450850D02*
X596900Y450850D01*
X285750Y95250D02*
X243450Y95250D01*
X400050Y273050D02*
X425450Y273050D01*
X400050Y273050D02*
X285750Y95250D01*
D19*
X107950Y349250D02*
X107950Y374650D01*
X107950Y349250D02*
X107950Y323850D01*
X107950Y298450D02*
X107950Y273050D01*
X107950Y298450D02*
X107950Y323850D01*
X107950Y247650D02*
X107950Y222250D01*
X107950Y247650D02*
X107950Y273050D01*
X107950Y196850D02*
X107950Y171450D01*
X107950Y196850D02*
X107950Y222250D01*
D20*
X139700Y196850D02*
X165100Y171450D01*
X171450Y171450D01*
X139700Y196850D02*
X107950Y196850D01*
X107950Y247650D02*
X139700Y247650D01*
X165100Y222250D01*
X171450Y222250D01*
X139700Y298450D02*
X107950Y298450D01*
X139700Y298450D02*
X165100Y273050D01*
X171450Y273050D01*
X139700Y349250D02*
X107950Y349250D01*
X139700Y349250D02*
X165100Y323850D01*
X171450Y323850D01*
D19*
X107950Y374650D02*
X107950Y400050D01*
D20*
X165100Y374650D02*
X171450Y374650D01*
X165100Y374650D02*
X139700Y400050D01*
X107950Y400050D01*
D19*
X107950Y95250D02*
X107950Y69850D01*
X107950Y95250D02*
X107950Y120650D01*
X107950Y146050D01*
X107950Y171450D01*
D20*
X165100Y120650D02*
X171450Y120650D01*
X165100Y120650D02*
X139700Y146050D01*
X107950Y146050D01*
X165100Y69850D02*
X171450Y69850D01*
X165100Y69850D02*
X139700Y95250D01*
X107950Y95250D01*
D19*
X107950Y515050D02*
X181000Y588100D01*
X107950Y515050D02*
X107950Y400050D01*
X240500Y647600D02*
X240500Y838200D01*
X240500Y647600D02*
X181000Y588100D01*
D18*
X240500Y647600D02*
X431900Y647600D01*
X501650Y577850D01*
X501650Y539750D01*
D20*
X226450Y349250D02*
X158750Y349250D01*
X133350Y374650D01*
X196850Y374650D02*
X226450Y374650D01*
X158750Y298450D02*
X133350Y323850D01*
X158750Y298450D02*
X226450Y298450D01*
X226450Y323850D02*
X196850Y323850D01*
X133350Y273050D02*
X158750Y247650D01*
X226450Y247650D01*
X226450Y273050D02*
X196850Y273050D01*
X226450Y95250D02*
X158750Y95250D01*
X133350Y120650D01*
X196850Y120650D02*
X226450Y120650D01*
X158750Y196850D02*
X133350Y222250D01*
X158750Y196850D02*
X226450Y196850D01*
X226450Y222250D02*
X196850Y222250D01*
X133350Y171450D02*
X158750Y146050D01*
X226450Y146050D01*
X226450Y171450D02*
X196850Y171450D01*
X226450Y44450D02*
X158750Y44450D01*
X133350Y69850D01*
X196850Y69850D02*
X226450Y69850D01*
X465700Y400050D02*
X611750Y254000D01*
X615950Y254000D01*
X642112Y91694D02*
X577088Y91694D01*
X543706Y91694D02*
X533400Y102000D01*
X543706Y91694D02*
X577088Y91694D01*
X501650Y101600D02*
X501650Y78350D01*
X501650Y101600D02*
X533000Y101600D01*
X533400Y102000D01*
X493150Y101600D02*
X450850Y118500D01*
X493150Y101600D02*
X501650Y101600D01*
M02*
