G04 EAGLE Gerber X2 export*
%TF.Part,Single*%
%TF.FileFunction,Copper,L1,Top,Mixed*%
%TF.FilePolarity,Positive*%
%TF.GenerationSoftware,Autodesk,EAGLE,8.6.3*%
%TF.CreationDate,2018-11-13T19:06:48Z*%
G75*
%MOMM*%
%FSLAX34Y34*%
%LPD*%
%AMOC8*
5,1,8,0,0,1.08239X$1,22.5*%
G01*
%ADD10C,1.508000*%
%ADD11C,1.879600*%
%ADD12R,2.032000X2.032000*%
%ADD13C,2.032000*%
%ADD14R,3.000000X3.000000*%
%ADD15C,2.184400*%


D10*
X280590Y323850D02*
X265510Y323850D01*
X417910Y323850D02*
X432990Y323850D01*
X432990Y298450D02*
X417910Y298450D01*
X417910Y273050D02*
X432990Y273050D01*
X432990Y247650D02*
X417910Y247650D01*
X417910Y222250D02*
X432990Y222250D01*
X432990Y196850D02*
X417910Y196850D01*
X417910Y171450D02*
X432990Y171450D01*
X432990Y146050D02*
X417910Y146050D01*
X280590Y146050D02*
X265510Y146050D01*
X265510Y171450D02*
X280590Y171450D01*
X280590Y196850D02*
X265510Y196850D01*
X265510Y222250D02*
X280590Y222250D01*
X280590Y247650D02*
X265510Y247650D01*
X265510Y273050D02*
X280590Y273050D01*
X280590Y298450D02*
X265510Y298450D01*
X265510Y349250D02*
X280590Y349250D01*
X280590Y374650D02*
X265510Y374650D01*
X265510Y400050D02*
X280590Y400050D01*
X280590Y425450D02*
X265510Y425450D01*
X265510Y450850D02*
X280590Y450850D01*
X280590Y476250D02*
X265510Y476250D01*
X265510Y501650D02*
X280590Y501650D01*
X417910Y501650D02*
X432990Y501650D01*
X432990Y476250D02*
X417910Y476250D01*
X417910Y450850D02*
X432990Y450850D01*
X432990Y425450D02*
X417910Y425450D01*
X417910Y400050D02*
X432990Y400050D01*
X432990Y374650D02*
X417910Y374650D01*
X417910Y349250D02*
X432990Y349250D01*
D11*
X476250Y501650D03*
X501650Y501650D03*
D10*
X509190Y215900D02*
X494110Y215900D01*
X494110Y240900D02*
X509190Y240900D01*
X509190Y265900D02*
X494110Y265900D01*
X494110Y290900D02*
X509190Y290900D01*
X198040Y450850D02*
X182960Y450850D01*
X182960Y475850D02*
X198040Y475850D01*
X198040Y500850D02*
X182960Y500850D01*
X182960Y525850D02*
X198040Y525850D01*
D12*
X520700Y838200D03*
D13*
X570700Y838200D03*
D11*
X133350Y374650D03*
X107950Y374650D03*
X82550Y374650D03*
D14*
X581000Y588100D03*
X581000Y758100D03*
X181000Y588100D03*
X181000Y758100D03*
D11*
X171450Y374650D03*
X196850Y374650D03*
X133350Y323850D03*
X107950Y323850D03*
X82550Y323850D03*
X171450Y323850D03*
X196850Y323850D03*
X133350Y273050D03*
X107950Y273050D03*
X82550Y273050D03*
X171450Y273050D03*
X196850Y273050D03*
X133350Y120650D03*
X107950Y120650D03*
X82550Y120650D03*
X171450Y120650D03*
X196850Y120650D03*
X133350Y222250D03*
X107950Y222250D03*
X82550Y222250D03*
X171450Y222250D03*
X196850Y222250D03*
X133350Y171450D03*
X107950Y171450D03*
X82550Y171450D03*
X171450Y171450D03*
X196850Y171450D03*
X133350Y69850D03*
X107950Y69850D03*
X82550Y69850D03*
X171450Y69850D03*
X196850Y69850D03*
D15*
X615950Y204000D03*
X615950Y254000D03*
X615950Y304000D03*
D11*
X642112Y91694D03*
X577088Y91694D03*
X642112Y136906D03*
X577088Y136906D03*
D12*
X190500Y838200D03*
D13*
X240500Y838200D03*
D11*
X501650Y539750D03*
X476250Y539750D03*
D10*
X589360Y450850D02*
X604440Y450850D01*
X604440Y475850D02*
X589360Y475850D01*
X540940Y127000D02*
X525860Y127000D01*
X525860Y102000D02*
X540940Y102000D01*
M02*
