M48
;GenerationSoftware,Autodesk,EAGLE,8.6.3*%
;CreationDate,2018-11-13T19:06:47Z*%
FMAT,2
ICI,OFF
METRIC,TZ,000.000
T6C0.813
T5C1.000
T4C1.016
T3C1.200
T2C1.300
T1C3.000
%
G90
M71
T1
X3810Y3810
X68580Y3810
X68580Y85090
X3810Y85090
T2
X52070Y83820
X57070Y83820
X19050Y83820
X24050Y83820
T3
X61595Y30400
X61595Y20400
X61595Y25400
T4
X10795Y37465
X13335Y17145
X13335Y32385
X10795Y32385
X8255Y32385
X13335Y27305
X10795Y27305
X13335Y12065
X10795Y12065
X8255Y12065
X13335Y22225
X10795Y22225
X8255Y22225
X8255Y37465
X10795Y17145
X8255Y17145
X13335Y6985
X10795Y6985
X8255Y6985
X8255Y27305
X13335Y37465
X64211Y9169
X57709Y9169
X64211Y13691
X57709Y13691
X47625Y50165
X50165Y50165
X50165Y53975
X47625Y53975
T5
X42545Y37465
X42545Y34925
X50165Y21590
X50165Y24090
X50165Y29090
X19050Y45085
X19050Y47585
X19050Y50085
X19050Y52585
X58100Y58810
X42545Y14605
X18100Y58810
X18100Y75810
X27305Y32385
X42545Y32385
X42545Y29845
X42545Y27305
X42545Y24765
X58100Y75810
X42545Y22225
X42545Y19685
X42545Y17145
X27305Y14605
X27305Y17145
X27305Y19685
X27305Y22225
X27305Y24765
X27305Y27305
X27305Y29845
X27305Y34925
X27305Y37465
X27305Y40005
X27305Y42545
X50165Y26590
X27305Y45085
X27305Y47625
X27305Y50165
X42545Y50165
X42545Y47625
X42545Y45085
X42545Y42545
X42545Y40005
X59690Y45085
X59690Y47585
X53340Y12700
X53340Y10200
T6
X19685Y27305
X17145Y22225
X19685Y22225
X19685Y32385
X19685Y37465
X17145Y37465
X17145Y17145
X19685Y17145
X17145Y12065
X19685Y12065
X17145Y32385
X17145Y6985
X19685Y6985
X17145Y27305
M30