G04 EAGLE Gerber X2 export*
%TF.Part,Single*%
%TF.FileFunction,Profile,NP*%
%TF.FilePolarity,Positive*%
%TF.GenerationSoftware,Autodesk,EAGLE,8.6.3*%
%TF.CreationDate,2018-11-13T19:06:48Z*%
G75*
%MOMM*%
%FSLAX34Y34*%
%LPD*%
%AMOC8*
5,1,8,0,0,1.08239X$1,22.5*%
G01*
%ADD10C,0.254000*%


D10*
X0Y0D02*
X723700Y0D01*
X723700Y885700D01*
X0Y885700D01*
X0Y0D01*
X53100Y37564D02*
X53024Y36496D01*
X52871Y35435D01*
X52643Y34388D01*
X52341Y33360D01*
X51967Y32356D01*
X51522Y31381D01*
X51008Y30441D01*
X50429Y29540D01*
X49787Y28682D01*
X49085Y27872D01*
X48328Y27115D01*
X47518Y26413D01*
X46660Y25771D01*
X45759Y25192D01*
X44819Y24678D01*
X43844Y24233D01*
X42840Y23859D01*
X41812Y23557D01*
X40765Y23329D01*
X39704Y23176D01*
X38636Y23100D01*
X37564Y23100D01*
X36496Y23176D01*
X35435Y23329D01*
X34388Y23557D01*
X33360Y23859D01*
X32356Y24233D01*
X31381Y24678D01*
X30441Y25192D01*
X29540Y25771D01*
X28682Y26413D01*
X27872Y27115D01*
X27115Y27872D01*
X26413Y28682D01*
X25771Y29540D01*
X25192Y30441D01*
X24678Y31381D01*
X24233Y32356D01*
X23859Y33360D01*
X23557Y34388D01*
X23329Y35435D01*
X23176Y36496D01*
X23100Y37564D01*
X23100Y38636D01*
X23176Y39704D01*
X23329Y40765D01*
X23557Y41812D01*
X23859Y42840D01*
X24233Y43844D01*
X24678Y44819D01*
X25192Y45759D01*
X25771Y46660D01*
X26413Y47518D01*
X27115Y48328D01*
X27872Y49085D01*
X28682Y49787D01*
X29540Y50429D01*
X30441Y51008D01*
X31381Y51522D01*
X32356Y51967D01*
X33360Y52341D01*
X34388Y52643D01*
X35435Y52871D01*
X36496Y53024D01*
X37564Y53100D01*
X38636Y53100D01*
X39704Y53024D01*
X40765Y52871D01*
X41812Y52643D01*
X42840Y52341D01*
X43844Y51967D01*
X44819Y51522D01*
X45759Y51008D01*
X46660Y50429D01*
X47518Y49787D01*
X48328Y49085D01*
X49085Y48328D01*
X49787Y47518D01*
X50429Y46660D01*
X51008Y45759D01*
X51522Y44819D01*
X51967Y43844D01*
X52341Y42840D01*
X52643Y41812D01*
X52871Y40765D01*
X53024Y39704D01*
X53100Y38636D01*
X53100Y37564D01*
X700800Y37564D02*
X700724Y36496D01*
X700571Y35435D01*
X700343Y34388D01*
X700041Y33360D01*
X699667Y32356D01*
X699222Y31381D01*
X698708Y30441D01*
X698129Y29540D01*
X697487Y28682D01*
X696785Y27872D01*
X696028Y27115D01*
X695218Y26413D01*
X694360Y25771D01*
X693459Y25192D01*
X692519Y24678D01*
X691544Y24233D01*
X690540Y23859D01*
X689512Y23557D01*
X688465Y23329D01*
X687404Y23176D01*
X686336Y23100D01*
X685264Y23100D01*
X684196Y23176D01*
X683135Y23329D01*
X682088Y23557D01*
X681060Y23859D01*
X680056Y24233D01*
X679081Y24678D01*
X678141Y25192D01*
X677240Y25771D01*
X676382Y26413D01*
X675572Y27115D01*
X674815Y27872D01*
X674113Y28682D01*
X673471Y29540D01*
X672892Y30441D01*
X672378Y31381D01*
X671933Y32356D01*
X671559Y33360D01*
X671257Y34388D01*
X671029Y35435D01*
X670876Y36496D01*
X670800Y37564D01*
X670800Y38636D01*
X670876Y39704D01*
X671029Y40765D01*
X671257Y41812D01*
X671559Y42840D01*
X671933Y43844D01*
X672378Y44819D01*
X672892Y45759D01*
X673471Y46660D01*
X674113Y47518D01*
X674815Y48328D01*
X675572Y49085D01*
X676382Y49787D01*
X677240Y50429D01*
X678141Y51008D01*
X679081Y51522D01*
X680056Y51967D01*
X681060Y52341D01*
X682088Y52643D01*
X683135Y52871D01*
X684196Y53024D01*
X685264Y53100D01*
X686336Y53100D01*
X687404Y53024D01*
X688465Y52871D01*
X689512Y52643D01*
X690540Y52341D01*
X691544Y51967D01*
X692519Y51522D01*
X693459Y51008D01*
X694360Y50429D01*
X695218Y49787D01*
X696028Y49085D01*
X696785Y48328D01*
X697487Y47518D01*
X698129Y46660D01*
X698708Y45759D01*
X699222Y44819D01*
X699667Y43844D01*
X700041Y42840D01*
X700343Y41812D01*
X700571Y40765D01*
X700724Y39704D01*
X700800Y38636D01*
X700800Y37564D01*
X700800Y850364D02*
X700724Y849296D01*
X700571Y848235D01*
X700343Y847188D01*
X700041Y846160D01*
X699667Y845156D01*
X699222Y844181D01*
X698708Y843241D01*
X698129Y842340D01*
X697487Y841482D01*
X696785Y840672D01*
X696028Y839915D01*
X695218Y839213D01*
X694360Y838571D01*
X693459Y837992D01*
X692519Y837478D01*
X691544Y837033D01*
X690540Y836659D01*
X689512Y836357D01*
X688465Y836129D01*
X687404Y835976D01*
X686336Y835900D01*
X685264Y835900D01*
X684196Y835976D01*
X683135Y836129D01*
X682088Y836357D01*
X681060Y836659D01*
X680056Y837033D01*
X679081Y837478D01*
X678141Y837992D01*
X677240Y838571D01*
X676382Y839213D01*
X675572Y839915D01*
X674815Y840672D01*
X674113Y841482D01*
X673471Y842340D01*
X672892Y843241D01*
X672378Y844181D01*
X671933Y845156D01*
X671559Y846160D01*
X671257Y847188D01*
X671029Y848235D01*
X670876Y849296D01*
X670800Y850364D01*
X670800Y851436D01*
X670876Y852504D01*
X671029Y853565D01*
X671257Y854612D01*
X671559Y855640D01*
X671933Y856644D01*
X672378Y857619D01*
X672892Y858559D01*
X673471Y859460D01*
X674113Y860318D01*
X674815Y861128D01*
X675572Y861885D01*
X676382Y862587D01*
X677240Y863229D01*
X678141Y863808D01*
X679081Y864322D01*
X680056Y864767D01*
X681060Y865141D01*
X682088Y865443D01*
X683135Y865671D01*
X684196Y865824D01*
X685264Y865900D01*
X686336Y865900D01*
X687404Y865824D01*
X688465Y865671D01*
X689512Y865443D01*
X690540Y865141D01*
X691544Y864767D01*
X692519Y864322D01*
X693459Y863808D01*
X694360Y863229D01*
X695218Y862587D01*
X696028Y861885D01*
X696785Y861128D01*
X697487Y860318D01*
X698129Y859460D01*
X698708Y858559D01*
X699222Y857619D01*
X699667Y856644D01*
X700041Y855640D01*
X700343Y854612D01*
X700571Y853565D01*
X700724Y852504D01*
X700800Y851436D01*
X700800Y850364D01*
X53100Y850364D02*
X53024Y849296D01*
X52871Y848235D01*
X52643Y847188D01*
X52341Y846160D01*
X51967Y845156D01*
X51522Y844181D01*
X51008Y843241D01*
X50429Y842340D01*
X49787Y841482D01*
X49085Y840672D01*
X48328Y839915D01*
X47518Y839213D01*
X46660Y838571D01*
X45759Y837992D01*
X44819Y837478D01*
X43844Y837033D01*
X42840Y836659D01*
X41812Y836357D01*
X40765Y836129D01*
X39704Y835976D01*
X38636Y835900D01*
X37564Y835900D01*
X36496Y835976D01*
X35435Y836129D01*
X34388Y836357D01*
X33360Y836659D01*
X32356Y837033D01*
X31381Y837478D01*
X30441Y837992D01*
X29540Y838571D01*
X28682Y839213D01*
X27872Y839915D01*
X27115Y840672D01*
X26413Y841482D01*
X25771Y842340D01*
X25192Y843241D01*
X24678Y844181D01*
X24233Y845156D01*
X23859Y846160D01*
X23557Y847188D01*
X23329Y848235D01*
X23176Y849296D01*
X23100Y850364D01*
X23100Y851436D01*
X23176Y852504D01*
X23329Y853565D01*
X23557Y854612D01*
X23859Y855640D01*
X24233Y856644D01*
X24678Y857619D01*
X25192Y858559D01*
X25771Y859460D01*
X26413Y860318D01*
X27115Y861128D01*
X27872Y861885D01*
X28682Y862587D01*
X29540Y863229D01*
X30441Y863808D01*
X31381Y864322D01*
X32356Y864767D01*
X33360Y865141D01*
X34388Y865443D01*
X35435Y865671D01*
X36496Y865824D01*
X37564Y865900D01*
X38636Y865900D01*
X39704Y865824D01*
X40765Y865671D01*
X41812Y865443D01*
X42840Y865141D01*
X43844Y864767D01*
X44819Y864322D01*
X45759Y863808D01*
X46660Y863229D01*
X47518Y862587D01*
X48328Y861885D01*
X49085Y861128D01*
X49787Y860318D01*
X50429Y859460D01*
X51008Y858559D01*
X51522Y857619D01*
X51967Y856644D01*
X52341Y855640D01*
X52643Y854612D01*
X52871Y853565D01*
X53024Y852504D01*
X53100Y851436D01*
X53100Y850364D01*
X53100Y37564D02*
X53024Y36496D01*
X52871Y35435D01*
X52643Y34388D01*
X52341Y33360D01*
X51967Y32356D01*
X51522Y31381D01*
X51008Y30441D01*
X50429Y29540D01*
X49787Y28682D01*
X49085Y27872D01*
X48328Y27115D01*
X47518Y26413D01*
X46660Y25771D01*
X45759Y25192D01*
X44819Y24678D01*
X43844Y24233D01*
X42840Y23859D01*
X41812Y23557D01*
X40765Y23329D01*
X39704Y23176D01*
X38636Y23100D01*
X37564Y23100D01*
X36496Y23176D01*
X35435Y23329D01*
X34388Y23557D01*
X33360Y23859D01*
X32356Y24233D01*
X31381Y24678D01*
X30441Y25192D01*
X29540Y25771D01*
X28682Y26413D01*
X27872Y27115D01*
X27115Y27872D01*
X26413Y28682D01*
X25771Y29540D01*
X25192Y30441D01*
X24678Y31381D01*
X24233Y32356D01*
X23859Y33360D01*
X23557Y34388D01*
X23329Y35435D01*
X23176Y36496D01*
X23100Y37564D01*
X23100Y38636D01*
X23176Y39704D01*
X23329Y40765D01*
X23557Y41812D01*
X23859Y42840D01*
X24233Y43844D01*
X24678Y44819D01*
X25192Y45759D01*
X25771Y46660D01*
X26413Y47518D01*
X27115Y48328D01*
X27872Y49085D01*
X28682Y49787D01*
X29540Y50429D01*
X30441Y51008D01*
X31381Y51522D01*
X32356Y51967D01*
X33360Y52341D01*
X34388Y52643D01*
X35435Y52871D01*
X36496Y53024D01*
X37564Y53100D01*
X38636Y53100D01*
X39704Y53024D01*
X40765Y52871D01*
X41812Y52643D01*
X42840Y52341D01*
X43844Y51967D01*
X44819Y51522D01*
X45759Y51008D01*
X46660Y50429D01*
X47518Y49787D01*
X48328Y49085D01*
X49085Y48328D01*
X49787Y47518D01*
X50429Y46660D01*
X51008Y45759D01*
X51522Y44819D01*
X51967Y43844D01*
X52341Y42840D01*
X52643Y41812D01*
X52871Y40765D01*
X53024Y39704D01*
X53100Y38636D01*
X53100Y37564D01*
X700800Y37564D02*
X700724Y36496D01*
X700571Y35435D01*
X700343Y34388D01*
X700041Y33360D01*
X699667Y32356D01*
X699222Y31381D01*
X698708Y30441D01*
X698129Y29540D01*
X697487Y28682D01*
X696785Y27872D01*
X696028Y27115D01*
X695218Y26413D01*
X694360Y25771D01*
X693459Y25192D01*
X692519Y24678D01*
X691544Y24233D01*
X690540Y23859D01*
X689512Y23557D01*
X688465Y23329D01*
X687404Y23176D01*
X686336Y23100D01*
X685264Y23100D01*
X684196Y23176D01*
X683135Y23329D01*
X682088Y23557D01*
X681060Y23859D01*
X680056Y24233D01*
X679081Y24678D01*
X678141Y25192D01*
X677240Y25771D01*
X676382Y26413D01*
X675572Y27115D01*
X674815Y27872D01*
X674113Y28682D01*
X673471Y29540D01*
X672892Y30441D01*
X672378Y31381D01*
X671933Y32356D01*
X671559Y33360D01*
X671257Y34388D01*
X671029Y35435D01*
X670876Y36496D01*
X670800Y37564D01*
X670800Y38636D01*
X670876Y39704D01*
X671029Y40765D01*
X671257Y41812D01*
X671559Y42840D01*
X671933Y43844D01*
X672378Y44819D01*
X672892Y45759D01*
X673471Y46660D01*
X674113Y47518D01*
X674815Y48328D01*
X675572Y49085D01*
X676382Y49787D01*
X677240Y50429D01*
X678141Y51008D01*
X679081Y51522D01*
X680056Y51967D01*
X681060Y52341D01*
X682088Y52643D01*
X683135Y52871D01*
X684196Y53024D01*
X685264Y53100D01*
X686336Y53100D01*
X687404Y53024D01*
X688465Y52871D01*
X689512Y52643D01*
X690540Y52341D01*
X691544Y51967D01*
X692519Y51522D01*
X693459Y51008D01*
X694360Y50429D01*
X695218Y49787D01*
X696028Y49085D01*
X696785Y48328D01*
X697487Y47518D01*
X698129Y46660D01*
X698708Y45759D01*
X699222Y44819D01*
X699667Y43844D01*
X700041Y42840D01*
X700343Y41812D01*
X700571Y40765D01*
X700724Y39704D01*
X700800Y38636D01*
X700800Y37564D01*
X700800Y850364D02*
X700724Y849296D01*
X700571Y848235D01*
X700343Y847188D01*
X700041Y846160D01*
X699667Y845156D01*
X699222Y844181D01*
X698708Y843241D01*
X698129Y842340D01*
X697487Y841482D01*
X696785Y840672D01*
X696028Y839915D01*
X695218Y839213D01*
X694360Y838571D01*
X693459Y837992D01*
X692519Y837478D01*
X691544Y837033D01*
X690540Y836659D01*
X689512Y836357D01*
X688465Y836129D01*
X687404Y835976D01*
X686336Y835900D01*
X685264Y835900D01*
X684196Y835976D01*
X683135Y836129D01*
X682088Y836357D01*
X681060Y836659D01*
X680056Y837033D01*
X679081Y837478D01*
X678141Y837992D01*
X677240Y838571D01*
X676382Y839213D01*
X675572Y839915D01*
X674815Y840672D01*
X674113Y841482D01*
X673471Y842340D01*
X672892Y843241D01*
X672378Y844181D01*
X671933Y845156D01*
X671559Y846160D01*
X671257Y847188D01*
X671029Y848235D01*
X670876Y849296D01*
X670800Y850364D01*
X670800Y851436D01*
X670876Y852504D01*
X671029Y853565D01*
X671257Y854612D01*
X671559Y855640D01*
X671933Y856644D01*
X672378Y857619D01*
X672892Y858559D01*
X673471Y859460D01*
X674113Y860318D01*
X674815Y861128D01*
X675572Y861885D01*
X676382Y862587D01*
X677240Y863229D01*
X678141Y863808D01*
X679081Y864322D01*
X680056Y864767D01*
X681060Y865141D01*
X682088Y865443D01*
X683135Y865671D01*
X684196Y865824D01*
X685264Y865900D01*
X686336Y865900D01*
X687404Y865824D01*
X688465Y865671D01*
X689512Y865443D01*
X690540Y865141D01*
X691544Y864767D01*
X692519Y864322D01*
X693459Y863808D01*
X694360Y863229D01*
X695218Y862587D01*
X696028Y861885D01*
X696785Y861128D01*
X697487Y860318D01*
X698129Y859460D01*
X698708Y858559D01*
X699222Y857619D01*
X699667Y856644D01*
X700041Y855640D01*
X700343Y854612D01*
X700571Y853565D01*
X700724Y852504D01*
X700800Y851436D01*
X700800Y850364D01*
X53100Y850364D02*
X53024Y849296D01*
X52871Y848235D01*
X52643Y847188D01*
X52341Y846160D01*
X51967Y845156D01*
X51522Y844181D01*
X51008Y843241D01*
X50429Y842340D01*
X49787Y841482D01*
X49085Y840672D01*
X48328Y839915D01*
X47518Y839213D01*
X46660Y838571D01*
X45759Y837992D01*
X44819Y837478D01*
X43844Y837033D01*
X42840Y836659D01*
X41812Y836357D01*
X40765Y836129D01*
X39704Y835976D01*
X38636Y835900D01*
X37564Y835900D01*
X36496Y835976D01*
X35435Y836129D01*
X34388Y836357D01*
X33360Y836659D01*
X32356Y837033D01*
X31381Y837478D01*
X30441Y837992D01*
X29540Y838571D01*
X28682Y839213D01*
X27872Y839915D01*
X27115Y840672D01*
X26413Y841482D01*
X25771Y842340D01*
X25192Y843241D01*
X24678Y844181D01*
X24233Y845156D01*
X23859Y846160D01*
X23557Y847188D01*
X23329Y848235D01*
X23176Y849296D01*
X23100Y850364D01*
X23100Y851436D01*
X23176Y852504D01*
X23329Y853565D01*
X23557Y854612D01*
X23859Y855640D01*
X24233Y856644D01*
X24678Y857619D01*
X25192Y858559D01*
X25771Y859460D01*
X26413Y860318D01*
X27115Y861128D01*
X27872Y861885D01*
X28682Y862587D01*
X29540Y863229D01*
X30441Y863808D01*
X31381Y864322D01*
X32356Y864767D01*
X33360Y865141D01*
X34388Y865443D01*
X35435Y865671D01*
X36496Y865824D01*
X37564Y865900D01*
X38636Y865900D01*
X39704Y865824D01*
X40765Y865671D01*
X41812Y865443D01*
X42840Y865141D01*
X43844Y864767D01*
X44819Y864322D01*
X45759Y863808D01*
X46660Y863229D01*
X47518Y862587D01*
X48328Y861885D01*
X49085Y861128D01*
X49787Y860318D01*
X50429Y859460D01*
X51008Y858559D01*
X51522Y857619D01*
X51967Y856644D01*
X52341Y855640D01*
X52643Y854612D01*
X52871Y853565D01*
X53024Y852504D01*
X53100Y851436D01*
X53100Y850364D01*
M02*
