G04 EAGLE Gerber X2 export*
%TF.Part,Single*%
%TF.FileFunction,Soldermask,Bot,1*%
%TF.FilePolarity,Negative*%
%TF.GenerationSoftware,Autodesk,EAGLE,8.6.3*%
%TF.CreationDate,2018-11-13T19:06:48Z*%
G75*
%MOMM*%
%FSLAX34Y34*%
%LPD*%
%AMOC8*
5,1,8,0,0,1.08239X$1,22.5*%
G01*
%ADD10C,3.203200*%
%ADD11C,1.711200*%
%ADD12C,2.082800*%
%ADD13R,2.235200X2.235200*%
%ADD14C,2.235200*%
%ADD15R,3.203200X3.203200*%
%ADD16R,1.303200X1.203200*%
%ADD17C,2.387600*%
%ADD18R,1.203200X1.303200*%


D10*
X38100Y38100D03*
X685800Y38100D03*
X685800Y850900D03*
X38100Y850900D03*
D11*
X265510Y323850D02*
X280590Y323850D01*
X417910Y323850D02*
X432990Y323850D01*
X432990Y298450D02*
X417910Y298450D01*
X417910Y273050D02*
X432990Y273050D01*
X432990Y247650D02*
X417910Y247650D01*
X417910Y222250D02*
X432990Y222250D01*
X432990Y196850D02*
X417910Y196850D01*
X417910Y171450D02*
X432990Y171450D01*
X432990Y146050D02*
X417910Y146050D01*
X280590Y146050D02*
X265510Y146050D01*
X265510Y171450D02*
X280590Y171450D01*
X280590Y196850D02*
X265510Y196850D01*
X265510Y222250D02*
X280590Y222250D01*
X280590Y247650D02*
X265510Y247650D01*
X265510Y273050D02*
X280590Y273050D01*
X280590Y298450D02*
X265510Y298450D01*
X265510Y349250D02*
X280590Y349250D01*
X280590Y374650D02*
X265510Y374650D01*
X265510Y400050D02*
X280590Y400050D01*
X280590Y425450D02*
X265510Y425450D01*
X265510Y450850D02*
X280590Y450850D01*
X280590Y476250D02*
X265510Y476250D01*
X265510Y501650D02*
X280590Y501650D01*
X417910Y501650D02*
X432990Y501650D01*
X432990Y476250D02*
X417910Y476250D01*
X417910Y450850D02*
X432990Y450850D01*
X432990Y425450D02*
X417910Y425450D01*
X417910Y400050D02*
X432990Y400050D01*
X432990Y374650D02*
X417910Y374650D01*
X417910Y349250D02*
X432990Y349250D01*
D12*
X476250Y501650D03*
X501650Y501650D03*
D11*
X509190Y215900D02*
X494110Y215900D01*
X494110Y240900D02*
X509190Y240900D01*
X509190Y265900D02*
X494110Y265900D01*
X494110Y290900D02*
X509190Y290900D01*
X198040Y450850D02*
X182960Y450850D01*
X182960Y475850D02*
X198040Y475850D01*
X198040Y500850D02*
X182960Y500850D01*
X182960Y525850D02*
X198040Y525850D01*
D13*
X520700Y838200D03*
D14*
X570700Y838200D03*
D12*
X133350Y374650D03*
X107950Y374650D03*
X82550Y374650D03*
D15*
X581000Y588100D03*
X581000Y758100D03*
X181000Y588100D03*
X181000Y758100D03*
D12*
X171450Y374650D03*
X196850Y374650D03*
D16*
X243450Y349250D03*
X226450Y349250D03*
X243450Y374650D03*
X226450Y374650D03*
D12*
X133350Y323850D03*
X107950Y323850D03*
X82550Y323850D03*
X171450Y323850D03*
X196850Y323850D03*
D16*
X243450Y298450D03*
X226450Y298450D03*
X243450Y323850D03*
X226450Y323850D03*
D12*
X133350Y273050D03*
X107950Y273050D03*
X82550Y273050D03*
X171450Y273050D03*
X196850Y273050D03*
D16*
X243450Y247650D03*
X226450Y247650D03*
X243450Y273050D03*
X226450Y273050D03*
D12*
X133350Y120650D03*
X107950Y120650D03*
X82550Y120650D03*
X171450Y120650D03*
X196850Y120650D03*
D16*
X243450Y95250D03*
X226450Y95250D03*
X243450Y120650D03*
X226450Y120650D03*
D12*
X133350Y222250D03*
X107950Y222250D03*
X82550Y222250D03*
X171450Y222250D03*
X196850Y222250D03*
D16*
X243450Y196850D03*
X226450Y196850D03*
X243450Y222250D03*
X226450Y222250D03*
D12*
X133350Y171450D03*
X107950Y171450D03*
X82550Y171450D03*
X171450Y171450D03*
X196850Y171450D03*
D16*
X243450Y146050D03*
X226450Y146050D03*
X243450Y171450D03*
X226450Y171450D03*
D12*
X133350Y69850D03*
X107950Y69850D03*
X82550Y69850D03*
X171450Y69850D03*
X196850Y69850D03*
D16*
X243450Y44450D03*
X226450Y44450D03*
X243450Y69850D03*
X226450Y69850D03*
D17*
X615950Y204000D03*
X615950Y254000D03*
X615950Y304000D03*
D16*
X465700Y400050D03*
X448700Y400050D03*
D12*
X642112Y91694D03*
X577088Y91694D03*
X642112Y136906D03*
X577088Y136906D03*
D18*
X501650Y61350D03*
X501650Y78350D03*
X450850Y135500D03*
X450850Y118500D03*
D13*
X190500Y838200D03*
D14*
X240500Y838200D03*
D12*
X501650Y539750D03*
X476250Y539750D03*
D11*
X589360Y450850D02*
X604440Y450850D01*
X604440Y475850D02*
X589360Y475850D01*
X540940Y127000D02*
X525860Y127000D01*
X525860Y102000D02*
X540940Y102000D01*
M02*
